M48
; DRILL file {KiCad 9.0.5} date 2026-07-03T00:14:52-0400
; FORMAT={-:-/ absolute / metric / decimal}
; #@! TF.CreationDate,2026-07-03T00:14:52-04:00
; #@! TF.GenerationSoftware,Kicad,Pcbnew,9.0.5
; #@! TF.FileFunction,Plated,1,2,PTH
FMAT,2
METRIC
; #@! TA.AperFunction,Plated,PTH,ComponentDrill
T1C0.800
; #@! TA.AperFunction,Plated,PTH,ComponentDrill
T2C1.000
; #@! TA.AperFunction,Plated,PTH,ComponentDrill
T3C1.100
; #@! TA.AperFunction,Plated,PTH,ComponentDrill
T4C1.300
%
G90
G05
T1
X56.34Y-81.5
X66.5Y-81.5
X70.0Y-111.0
X70.0Y-121.16
X95.0Y-64.34
X95.0Y-74.5
X113.84Y-66.5
X113.84Y-74.0
X124.0Y-66.5
X124.0Y-74.0
X127.84Y-74.5
X128.0Y-81.0
X138.0Y-74.5
X138.16Y-81.0
T2
X54.7Y-96.0
X62.3Y-96.0
X83.0Y-71.0
X83.0Y-73.54
X83.0Y-76.08
X83.0Y-78.62
X83.0Y-81.16
X83.0Y-83.7
X83.0Y-86.24
X83.0Y-88.78
X83.0Y-91.32
X83.0Y-93.86
X83.0Y-96.4
X83.0Y-98.94
X83.0Y-101.48
X83.0Y-104.02
X83.0Y-106.56
X85.92Y-128.5
X88.46Y-128.5
X91.0Y-128.5
X93.54Y-128.5
X96.08Y-128.5
X98.62Y-128.5
X101.16Y-128.5
X103.7Y-128.5
X105.86Y-71.0
X105.86Y-73.54
X105.86Y-76.08
X105.86Y-78.62
X105.86Y-81.16
X105.86Y-83.7
X105.86Y-86.24
X105.86Y-88.78
X105.86Y-91.32
X105.86Y-93.86
X105.86Y-96.4
X105.86Y-98.94
X105.86Y-101.48
X105.86Y-104.02
X105.86Y-106.56
X144.0Y-71.0
X144.0Y-73.54
X144.0Y-76.08
X144.0Y-78.62
X144.0Y-81.16
X144.0Y-83.7
X144.0Y-86.24
X144.0Y-88.78
X144.0Y-91.32
X144.0Y-93.86
X144.0Y-96.4
X144.0Y-98.94
X144.0Y-101.48
X144.0Y-104.02
X144.0Y-106.56
X159.24Y-71.0
X159.24Y-73.54
X159.24Y-76.08
X159.24Y-78.62
X159.24Y-81.16
X159.24Y-83.7
X159.24Y-86.24
X159.24Y-88.78
X159.24Y-91.32
X159.24Y-93.86
X159.24Y-96.4
X159.24Y-98.94
X159.24Y-101.48
X159.24Y-104.02
X159.24Y-106.56
T3
X130.96Y-66.45
X133.5Y-66.45
X136.04Y-66.45
T4
X57.0Y-109.5
X57.0Y-114.5
X57.0Y-119.5
X57.0Y-128.5
X57.0Y-133.5
X57.0Y-138.5
X65.0Y-53.5
X65.0Y-58.5
X65.0Y-63.5
X65.0Y-68.5
X92.75Y-55.0
X97.75Y-55.0
X119.0Y-55.0
X124.0Y-55.0
X133.0Y-38.5
X138.0Y-38.5
X139.0Y-128.0
X143.5Y-55.0
X144.0Y-128.0
X148.5Y-55.0
X149.0Y-128.0
X153.5Y-55.0
X154.0Y-128.0
X158.5Y-55.0
X159.0Y-128.0
X164.0Y-128.0
M30
