%TF.GenerationSoftware,KiCad,Pcbnew,9.0.5*%
%TF.CreationDate,2026-07-02T22:36:49-04:00*%
%TF.ProjectId,Electric Skateboard,456c6563-7472-4696-9320-536b61746562,rev?*%
%TF.SameCoordinates,Original*%
%TF.FileFunction,Legend,Top*%
%TF.FilePolarity,Positive*%
%FSLAX46Y46*%
G04 Gerber Fmt 4.6, Leading zero omitted, Abs format (unit mm)*
G04 Created by KiCad (PCBNEW 9.0.5) date 2026-07-02 22:36:49*
%MOMM*%
%LPD*%
G01*
G04 APERTURE LIST*
%ADD10C,0.150000*%
%ADD11C,0.120000*%
G04 APERTURE END LIST*
D10*
X93084819Y-69586666D02*
X92608628Y-69919999D01*
X93084819Y-70158094D02*
X92084819Y-70158094D01*
X92084819Y-70158094D02*
X92084819Y-69777142D01*
X92084819Y-69777142D02*
X92132438Y-69681904D01*
X92132438Y-69681904D02*
X92180057Y-69634285D01*
X92180057Y-69634285D02*
X92275295Y-69586666D01*
X92275295Y-69586666D02*
X92418152Y-69586666D01*
X92418152Y-69586666D02*
X92513390Y-69634285D01*
X92513390Y-69634285D02*
X92561009Y-69681904D01*
X92561009Y-69681904D02*
X92608628Y-69777142D01*
X92608628Y-69777142D02*
X92608628Y-70158094D01*
X92084819Y-68729523D02*
X92084819Y-68919999D01*
X92084819Y-68919999D02*
X92132438Y-69015237D01*
X92132438Y-69015237D02*
X92180057Y-69062856D01*
X92180057Y-69062856D02*
X92322914Y-69158094D01*
X92322914Y-69158094D02*
X92513390Y-69205713D01*
X92513390Y-69205713D02*
X92894342Y-69205713D01*
X92894342Y-69205713D02*
X92989580Y-69158094D01*
X92989580Y-69158094D02*
X93037200Y-69110475D01*
X93037200Y-69110475D02*
X93084819Y-69015237D01*
X93084819Y-69015237D02*
X93084819Y-68824761D01*
X93084819Y-68824761D02*
X93037200Y-68729523D01*
X93037200Y-68729523D02*
X92989580Y-68681904D01*
X92989580Y-68681904D02*
X92894342Y-68634285D01*
X92894342Y-68634285D02*
X92656247Y-68634285D01*
X92656247Y-68634285D02*
X92561009Y-68681904D01*
X92561009Y-68681904D02*
X92513390Y-68729523D01*
X92513390Y-68729523D02*
X92465771Y-68824761D01*
X92465771Y-68824761D02*
X92465771Y-69015237D01*
X92465771Y-69015237D02*
X92513390Y-69110475D01*
X92513390Y-69110475D02*
X92561009Y-69158094D01*
X92561009Y-69158094D02*
X92656247Y-69205713D01*
X158906666Y-68074819D02*
X158906666Y-68789104D01*
X158906666Y-68789104D02*
X158859047Y-68931961D01*
X158859047Y-68931961D02*
X158763809Y-69027200D01*
X158763809Y-69027200D02*
X158620952Y-69074819D01*
X158620952Y-69074819D02*
X158525714Y-69074819D01*
X159287619Y-68074819D02*
X159906666Y-68074819D01*
X159906666Y-68074819D02*
X159573333Y-68455771D01*
X159573333Y-68455771D02*
X159716190Y-68455771D01*
X159716190Y-68455771D02*
X159811428Y-68503390D01*
X159811428Y-68503390D02*
X159859047Y-68551009D01*
X159859047Y-68551009D02*
X159906666Y-68646247D01*
X159906666Y-68646247D02*
X159906666Y-68884342D01*
X159906666Y-68884342D02*
X159859047Y-68979580D01*
X159859047Y-68979580D02*
X159811428Y-69027200D01*
X159811428Y-69027200D02*
X159716190Y-69074819D01*
X159716190Y-69074819D02*
X159430476Y-69074819D01*
X159430476Y-69074819D02*
X159335238Y-69027200D01*
X159335238Y-69027200D02*
X159287619Y-68979580D01*
X165524489Y-151846995D02*
X165191156Y-151370804D01*
X164953061Y-151846995D02*
X164953061Y-150846995D01*
X164953061Y-150846995D02*
X165334013Y-150846995D01*
X165334013Y-150846995D02*
X165429251Y-150894614D01*
X165429251Y-150894614D02*
X165476870Y-150942233D01*
X165476870Y-150942233D02*
X165524489Y-151037471D01*
X165524489Y-151037471D02*
X165524489Y-151180328D01*
X165524489Y-151180328D02*
X165476870Y-151275566D01*
X165476870Y-151275566D02*
X165429251Y-151323185D01*
X165429251Y-151323185D02*
X165334013Y-151370804D01*
X165334013Y-151370804D02*
X164953061Y-151370804D01*
X165953061Y-151323185D02*
X166286394Y-151323185D01*
X166429251Y-151846995D02*
X165953061Y-151846995D01*
X165953061Y-151846995D02*
X165953061Y-150846995D01*
X165953061Y-150846995D02*
X166429251Y-150846995D01*
X167191156Y-151323185D02*
X166857823Y-151323185D01*
X166857823Y-151846995D02*
X166857823Y-150846995D01*
X166857823Y-150846995D02*
X167334013Y-150846995D01*
X167857823Y-150846995D02*
X167857823Y-151085090D01*
X167619728Y-150989852D02*
X167857823Y-151085090D01*
X167857823Y-151085090D02*
X168095918Y-150989852D01*
X167714966Y-151275566D02*
X167857823Y-151085090D01*
X167857823Y-151085090D02*
X168000680Y-151275566D01*
X168619728Y-150846995D02*
X168619728Y-151085090D01*
X168381633Y-150989852D02*
X168619728Y-151085090D01*
X168619728Y-151085090D02*
X168857823Y-150989852D01*
X168476871Y-151275566D02*
X168619728Y-151085090D01*
X168619728Y-151085090D02*
X168762585Y-151275566D01*
X51524489Y-151846995D02*
X51191156Y-151370804D01*
X50953061Y-151846995D02*
X50953061Y-150846995D01*
X50953061Y-150846995D02*
X51334013Y-150846995D01*
X51334013Y-150846995D02*
X51429251Y-150894614D01*
X51429251Y-150894614D02*
X51476870Y-150942233D01*
X51476870Y-150942233D02*
X51524489Y-151037471D01*
X51524489Y-151037471D02*
X51524489Y-151180328D01*
X51524489Y-151180328D02*
X51476870Y-151275566D01*
X51476870Y-151275566D02*
X51429251Y-151323185D01*
X51429251Y-151323185D02*
X51334013Y-151370804D01*
X51334013Y-151370804D02*
X50953061Y-151370804D01*
X51953061Y-151323185D02*
X52286394Y-151323185D01*
X52429251Y-151846995D02*
X51953061Y-151846995D01*
X51953061Y-151846995D02*
X51953061Y-150846995D01*
X51953061Y-150846995D02*
X52429251Y-150846995D01*
X53191156Y-151323185D02*
X52857823Y-151323185D01*
X52857823Y-151846995D02*
X52857823Y-150846995D01*
X52857823Y-150846995D02*
X53334013Y-150846995D01*
X53857823Y-150846995D02*
X53857823Y-151085090D01*
X53619728Y-150989852D02*
X53857823Y-151085090D01*
X53857823Y-151085090D02*
X54095918Y-150989852D01*
X53714966Y-151275566D02*
X53857823Y-151085090D01*
X53857823Y-151085090D02*
X54000680Y-151275566D01*
X54619728Y-150846995D02*
X54619728Y-151085090D01*
X54381633Y-150989852D02*
X54619728Y-151085090D01*
X54619728Y-151085090D02*
X54857823Y-150989852D01*
X54476871Y-151275566D02*
X54619728Y-151085090D01*
X54619728Y-151085090D02*
X54762585Y-151275566D01*
X57619047Y-88731009D02*
X57761904Y-88778628D01*
X57761904Y-88778628D02*
X57809523Y-88826247D01*
X57809523Y-88826247D02*
X57857142Y-88921485D01*
X57857142Y-88921485D02*
X57857142Y-89064342D01*
X57857142Y-89064342D02*
X57809523Y-89159580D01*
X57809523Y-89159580D02*
X57761904Y-89207200D01*
X57761904Y-89207200D02*
X57666666Y-89254819D01*
X57666666Y-89254819D02*
X57285714Y-89254819D01*
X57285714Y-89254819D02*
X57285714Y-88254819D01*
X57285714Y-88254819D02*
X57619047Y-88254819D01*
X57619047Y-88254819D02*
X57714285Y-88302438D01*
X57714285Y-88302438D02*
X57761904Y-88350057D01*
X57761904Y-88350057D02*
X57809523Y-88445295D01*
X57809523Y-88445295D02*
X57809523Y-88540533D01*
X57809523Y-88540533D02*
X57761904Y-88635771D01*
X57761904Y-88635771D02*
X57714285Y-88683390D01*
X57714285Y-88683390D02*
X57619047Y-88731009D01*
X57619047Y-88731009D02*
X57285714Y-88731009D01*
X58190476Y-88254819D02*
X58857142Y-88254819D01*
X58857142Y-88254819D02*
X58190476Y-89254819D01*
X58190476Y-89254819D02*
X58857142Y-89254819D01*
X59761904Y-89254819D02*
X59190476Y-89254819D01*
X59476190Y-89254819D02*
X59476190Y-88254819D01*
X59476190Y-88254819D02*
X59380952Y-88397676D01*
X59380952Y-88397676D02*
X59285714Y-88492914D01*
X59285714Y-88492914D02*
X59190476Y-88540533D01*
X54309048Y-93533866D02*
X55070953Y-93533866D01*
X54690000Y-93914819D02*
X54690000Y-93152914D01*
X51334819Y-134083333D02*
X52049104Y-134083333D01*
X52049104Y-134083333D02*
X52191961Y-134130952D01*
X52191961Y-134130952D02*
X52287200Y-134226190D01*
X52287200Y-134226190D02*
X52334819Y-134369047D01*
X52334819Y-134369047D02*
X52334819Y-134464285D01*
X51334819Y-133702380D02*
X51334819Y-133035714D01*
X51334819Y-133035714D02*
X52334819Y-133464285D01*
X118753333Y-72084819D02*
X118420000Y-71608628D01*
X118181905Y-72084819D02*
X118181905Y-71084819D01*
X118181905Y-71084819D02*
X118562857Y-71084819D01*
X118562857Y-71084819D02*
X118658095Y-71132438D01*
X118658095Y-71132438D02*
X118705714Y-71180057D01*
X118705714Y-71180057D02*
X118753333Y-71275295D01*
X118753333Y-71275295D02*
X118753333Y-71418152D01*
X118753333Y-71418152D02*
X118705714Y-71513390D01*
X118705714Y-71513390D02*
X118658095Y-71561009D01*
X118658095Y-71561009D02*
X118562857Y-71608628D01*
X118562857Y-71608628D02*
X118181905Y-71608628D01*
X119610476Y-71418152D02*
X119610476Y-72084819D01*
X119372381Y-71037200D02*
X119134286Y-71751485D01*
X119134286Y-71751485D02*
X119753333Y-71751485D01*
X133404761Y-62900057D02*
X133309523Y-62852438D01*
X133309523Y-62852438D02*
X133214285Y-62757200D01*
X133214285Y-62757200D02*
X133071428Y-62614342D01*
X133071428Y-62614342D02*
X132976190Y-62566723D01*
X132976190Y-62566723D02*
X132880952Y-62566723D01*
X132928571Y-62804819D02*
X132833333Y-62757200D01*
X132833333Y-62757200D02*
X132738095Y-62661961D01*
X132738095Y-62661961D02*
X132690476Y-62471485D01*
X132690476Y-62471485D02*
X132690476Y-62138152D01*
X132690476Y-62138152D02*
X132738095Y-61947676D01*
X132738095Y-61947676D02*
X132833333Y-61852438D01*
X132833333Y-61852438D02*
X132928571Y-61804819D01*
X132928571Y-61804819D02*
X133119047Y-61804819D01*
X133119047Y-61804819D02*
X133214285Y-61852438D01*
X133214285Y-61852438D02*
X133309523Y-61947676D01*
X133309523Y-61947676D02*
X133357142Y-62138152D01*
X133357142Y-62138152D02*
X133357142Y-62471485D01*
X133357142Y-62471485D02*
X133309523Y-62661961D01*
X133309523Y-62661961D02*
X133214285Y-62757200D01*
X133214285Y-62757200D02*
X133119047Y-62804819D01*
X133119047Y-62804819D02*
X132928571Y-62804819D01*
X134309523Y-62804819D02*
X133738095Y-62804819D01*
X134023809Y-62804819D02*
X134023809Y-61804819D01*
X134023809Y-61804819D02*
X133928571Y-61947676D01*
X133928571Y-61947676D02*
X133833333Y-62042914D01*
X133833333Y-62042914D02*
X133738095Y-62090533D01*
X59334819Y-61583333D02*
X60049104Y-61583333D01*
X60049104Y-61583333D02*
X60191961Y-61630952D01*
X60191961Y-61630952D02*
X60287200Y-61726190D01*
X60287200Y-61726190D02*
X60334819Y-61869047D01*
X60334819Y-61869047D02*
X60334819Y-61964285D01*
X60334819Y-61059523D02*
X60334819Y-60869047D01*
X60334819Y-60869047D02*
X60287200Y-60773809D01*
X60287200Y-60773809D02*
X60239580Y-60726190D01*
X60239580Y-60726190D02*
X60096723Y-60630952D01*
X60096723Y-60630952D02*
X59906247Y-60583333D01*
X59906247Y-60583333D02*
X59525295Y-60583333D01*
X59525295Y-60583333D02*
X59430057Y-60630952D01*
X59430057Y-60630952D02*
X59382438Y-60678571D01*
X59382438Y-60678571D02*
X59334819Y-60773809D01*
X59334819Y-60773809D02*
X59334819Y-60964285D01*
X59334819Y-60964285D02*
X59382438Y-61059523D01*
X59382438Y-61059523D02*
X59430057Y-61107142D01*
X59430057Y-61107142D02*
X59525295Y-61154761D01*
X59525295Y-61154761D02*
X59763390Y-61154761D01*
X59763390Y-61154761D02*
X59858628Y-61107142D01*
X59858628Y-61107142D02*
X59906247Y-61059523D01*
X59906247Y-61059523D02*
X59953866Y-60964285D01*
X59953866Y-60964285D02*
X59953866Y-60773809D01*
X59953866Y-60773809D02*
X59906247Y-60678571D01*
X59906247Y-60678571D02*
X59858628Y-60630952D01*
X59858628Y-60630952D02*
X59763390Y-60583333D01*
X149940476Y-49334819D02*
X149940476Y-50049104D01*
X149940476Y-50049104D02*
X149892857Y-50191961D01*
X149892857Y-50191961D02*
X149797619Y-50287200D01*
X149797619Y-50287200D02*
X149654762Y-50334819D01*
X149654762Y-50334819D02*
X149559524Y-50334819D01*
X150940476Y-50334819D02*
X150369048Y-50334819D01*
X150654762Y-50334819D02*
X150654762Y-49334819D01*
X150654762Y-49334819D02*
X150559524Y-49477676D01*
X150559524Y-49477676D02*
X150464286Y-49572914D01*
X150464286Y-49572914D02*
X150369048Y-49620533D01*
X151892857Y-50334819D02*
X151321429Y-50334819D01*
X151607143Y-50334819D02*
X151607143Y-49334819D01*
X151607143Y-49334819D02*
X151511905Y-49477676D01*
X151511905Y-49477676D02*
X151416667Y-49572914D01*
X151416667Y-49572914D02*
X151321429Y-49620533D01*
X82994819Y-128833333D02*
X83709104Y-128833333D01*
X83709104Y-128833333D02*
X83851961Y-128880952D01*
X83851961Y-128880952D02*
X83947200Y-128976190D01*
X83947200Y-128976190D02*
X83994819Y-129119047D01*
X83994819Y-129119047D02*
X83994819Y-129214285D01*
X83423390Y-128214285D02*
X83375771Y-128309523D01*
X83375771Y-128309523D02*
X83328152Y-128357142D01*
X83328152Y-128357142D02*
X83232914Y-128404761D01*
X83232914Y-128404761D02*
X83185295Y-128404761D01*
X83185295Y-128404761D02*
X83090057Y-128357142D01*
X83090057Y-128357142D02*
X83042438Y-128309523D01*
X83042438Y-128309523D02*
X82994819Y-128214285D01*
X82994819Y-128214285D02*
X82994819Y-128023809D01*
X82994819Y-128023809D02*
X83042438Y-127928571D01*
X83042438Y-127928571D02*
X83090057Y-127880952D01*
X83090057Y-127880952D02*
X83185295Y-127833333D01*
X83185295Y-127833333D02*
X83232914Y-127833333D01*
X83232914Y-127833333D02*
X83328152Y-127880952D01*
X83328152Y-127880952D02*
X83375771Y-127928571D01*
X83375771Y-127928571D02*
X83423390Y-128023809D01*
X83423390Y-128023809D02*
X83423390Y-128214285D01*
X83423390Y-128214285D02*
X83471009Y-128309523D01*
X83471009Y-128309523D02*
X83518628Y-128357142D01*
X83518628Y-128357142D02*
X83613866Y-128404761D01*
X83613866Y-128404761D02*
X83804342Y-128404761D01*
X83804342Y-128404761D02*
X83899580Y-128357142D01*
X83899580Y-128357142D02*
X83947200Y-128309523D01*
X83947200Y-128309523D02*
X83994819Y-128214285D01*
X83994819Y-128214285D02*
X83994819Y-128023809D01*
X83994819Y-128023809D02*
X83947200Y-127928571D01*
X83947200Y-127928571D02*
X83899580Y-127880952D01*
X83899580Y-127880952D02*
X83804342Y-127833333D01*
X83804342Y-127833333D02*
X83613866Y-127833333D01*
X83613866Y-127833333D02*
X83518628Y-127880952D01*
X83518628Y-127880952D02*
X83471009Y-127928571D01*
X83471009Y-127928571D02*
X83423390Y-128023809D01*
X61253333Y-79584819D02*
X60920000Y-79108628D01*
X60681905Y-79584819D02*
X60681905Y-78584819D01*
X60681905Y-78584819D02*
X61062857Y-78584819D01*
X61062857Y-78584819D02*
X61158095Y-78632438D01*
X61158095Y-78632438D02*
X61205714Y-78680057D01*
X61205714Y-78680057D02*
X61253333Y-78775295D01*
X61253333Y-78775295D02*
X61253333Y-78918152D01*
X61253333Y-78918152D02*
X61205714Y-79013390D01*
X61205714Y-79013390D02*
X61158095Y-79061009D01*
X61158095Y-79061009D02*
X61062857Y-79108628D01*
X61062857Y-79108628D02*
X60681905Y-79108628D01*
X61586667Y-78584819D02*
X62253333Y-78584819D01*
X62253333Y-78584819D02*
X61824762Y-79584819D01*
X82666666Y-68074819D02*
X82666666Y-68789104D01*
X82666666Y-68789104D02*
X82619047Y-68931961D01*
X82619047Y-68931961D02*
X82523809Y-69027200D01*
X82523809Y-69027200D02*
X82380952Y-69074819D01*
X82380952Y-69074819D02*
X82285714Y-69074819D01*
X83095238Y-68170057D02*
X83142857Y-68122438D01*
X83142857Y-68122438D02*
X83238095Y-68074819D01*
X83238095Y-68074819D02*
X83476190Y-68074819D01*
X83476190Y-68074819D02*
X83571428Y-68122438D01*
X83571428Y-68122438D02*
X83619047Y-68170057D01*
X83619047Y-68170057D02*
X83666666Y-68265295D01*
X83666666Y-68265295D02*
X83666666Y-68360533D01*
X83666666Y-68360533D02*
X83619047Y-68503390D01*
X83619047Y-68503390D02*
X83047619Y-69074819D01*
X83047619Y-69074819D02*
X83666666Y-69074819D01*
X51524489Y-40346995D02*
X51191156Y-39870804D01*
X50953061Y-40346995D02*
X50953061Y-39346995D01*
X50953061Y-39346995D02*
X51334013Y-39346995D01*
X51334013Y-39346995D02*
X51429251Y-39394614D01*
X51429251Y-39394614D02*
X51476870Y-39442233D01*
X51476870Y-39442233D02*
X51524489Y-39537471D01*
X51524489Y-39537471D02*
X51524489Y-39680328D01*
X51524489Y-39680328D02*
X51476870Y-39775566D01*
X51476870Y-39775566D02*
X51429251Y-39823185D01*
X51429251Y-39823185D02*
X51334013Y-39870804D01*
X51334013Y-39870804D02*
X50953061Y-39870804D01*
X51953061Y-39823185D02*
X52286394Y-39823185D01*
X52429251Y-40346995D02*
X51953061Y-40346995D01*
X51953061Y-40346995D02*
X51953061Y-39346995D01*
X51953061Y-39346995D02*
X52429251Y-39346995D01*
X53191156Y-39823185D02*
X52857823Y-39823185D01*
X52857823Y-40346995D02*
X52857823Y-39346995D01*
X52857823Y-39346995D02*
X53334013Y-39346995D01*
X53857823Y-39346995D02*
X53857823Y-39585090D01*
X53619728Y-39489852D02*
X53857823Y-39585090D01*
X53857823Y-39585090D02*
X54095918Y-39489852D01*
X53714966Y-39775566D02*
X53857823Y-39585090D01*
X53857823Y-39585090D02*
X54000680Y-39775566D01*
X54619728Y-39346995D02*
X54619728Y-39585090D01*
X54381633Y-39489852D02*
X54619728Y-39585090D01*
X54619728Y-39585090D02*
X54857823Y-39489852D01*
X54476871Y-39775566D02*
X54619728Y-39585090D01*
X54619728Y-39585090D02*
X54762585Y-39775566D01*
X132913333Y-79084819D02*
X132580000Y-78608628D01*
X132341905Y-79084819D02*
X132341905Y-78084819D01*
X132341905Y-78084819D02*
X132722857Y-78084819D01*
X132722857Y-78084819D02*
X132818095Y-78132438D01*
X132818095Y-78132438D02*
X132865714Y-78180057D01*
X132865714Y-78180057D02*
X132913333Y-78275295D01*
X132913333Y-78275295D02*
X132913333Y-78418152D01*
X132913333Y-78418152D02*
X132865714Y-78513390D01*
X132865714Y-78513390D02*
X132818095Y-78561009D01*
X132818095Y-78561009D02*
X132722857Y-78608628D01*
X132722857Y-78608628D02*
X132341905Y-78608628D01*
X133294286Y-78180057D02*
X133341905Y-78132438D01*
X133341905Y-78132438D02*
X133437143Y-78084819D01*
X133437143Y-78084819D02*
X133675238Y-78084819D01*
X133675238Y-78084819D02*
X133770476Y-78132438D01*
X133770476Y-78132438D02*
X133818095Y-78180057D01*
X133818095Y-78180057D02*
X133865714Y-78275295D01*
X133865714Y-78275295D02*
X133865714Y-78370533D01*
X133865714Y-78370533D02*
X133818095Y-78513390D01*
X133818095Y-78513390D02*
X133246667Y-79084819D01*
X133246667Y-79084819D02*
X133865714Y-79084819D01*
X51334819Y-115083333D02*
X52049104Y-115083333D01*
X52049104Y-115083333D02*
X52191961Y-115130952D01*
X52191961Y-115130952D02*
X52287200Y-115226190D01*
X52287200Y-115226190D02*
X52334819Y-115369047D01*
X52334819Y-115369047D02*
X52334819Y-115464285D01*
X51334819Y-114178571D02*
X51334819Y-114369047D01*
X51334819Y-114369047D02*
X51382438Y-114464285D01*
X51382438Y-114464285D02*
X51430057Y-114511904D01*
X51430057Y-114511904D02*
X51572914Y-114607142D01*
X51572914Y-114607142D02*
X51763390Y-114654761D01*
X51763390Y-114654761D02*
X52144342Y-114654761D01*
X52144342Y-114654761D02*
X52239580Y-114607142D01*
X52239580Y-114607142D02*
X52287200Y-114559523D01*
X52287200Y-114559523D02*
X52334819Y-114464285D01*
X52334819Y-114464285D02*
X52334819Y-114273809D01*
X52334819Y-114273809D02*
X52287200Y-114178571D01*
X52287200Y-114178571D02*
X52239580Y-114130952D01*
X52239580Y-114130952D02*
X52144342Y-114083333D01*
X52144342Y-114083333D02*
X51906247Y-114083333D01*
X51906247Y-114083333D02*
X51811009Y-114130952D01*
X51811009Y-114130952D02*
X51763390Y-114178571D01*
X51763390Y-114178571D02*
X51715771Y-114273809D01*
X51715771Y-114273809D02*
X51715771Y-114464285D01*
X51715771Y-114464285D02*
X51763390Y-114559523D01*
X51763390Y-114559523D02*
X51811009Y-114607142D01*
X51811009Y-114607142D02*
X51906247Y-114654761D01*
X105526666Y-68074819D02*
X105526666Y-68789104D01*
X105526666Y-68789104D02*
X105479047Y-68931961D01*
X105479047Y-68931961D02*
X105383809Y-69027200D01*
X105383809Y-69027200D02*
X105240952Y-69074819D01*
X105240952Y-69074819D02*
X105145714Y-69074819D01*
X106526666Y-69074819D02*
X105955238Y-69074819D01*
X106240952Y-69074819D02*
X106240952Y-68074819D01*
X106240952Y-68074819D02*
X106145714Y-68217676D01*
X106145714Y-68217676D02*
X106050476Y-68312914D01*
X106050476Y-68312914D02*
X105955238Y-68360533D01*
X165524489Y-40346995D02*
X165191156Y-39870804D01*
X164953061Y-40346995D02*
X164953061Y-39346995D01*
X164953061Y-39346995D02*
X165334013Y-39346995D01*
X165334013Y-39346995D02*
X165429251Y-39394614D01*
X165429251Y-39394614D02*
X165476870Y-39442233D01*
X165476870Y-39442233D02*
X165524489Y-39537471D01*
X165524489Y-39537471D02*
X165524489Y-39680328D01*
X165524489Y-39680328D02*
X165476870Y-39775566D01*
X165476870Y-39775566D02*
X165429251Y-39823185D01*
X165429251Y-39823185D02*
X165334013Y-39870804D01*
X165334013Y-39870804D02*
X164953061Y-39870804D01*
X165953061Y-39823185D02*
X166286394Y-39823185D01*
X166429251Y-40346995D02*
X165953061Y-40346995D01*
X165953061Y-40346995D02*
X165953061Y-39346995D01*
X165953061Y-39346995D02*
X166429251Y-39346995D01*
X167191156Y-39823185D02*
X166857823Y-39823185D01*
X166857823Y-40346995D02*
X166857823Y-39346995D01*
X166857823Y-39346995D02*
X167334013Y-39346995D01*
X167857823Y-39346995D02*
X167857823Y-39585090D01*
X167619728Y-39489852D02*
X167857823Y-39585090D01*
X167857823Y-39585090D02*
X168095918Y-39489852D01*
X167714966Y-39775566D02*
X167857823Y-39585090D01*
X167857823Y-39585090D02*
X168000680Y-39775566D01*
X168619728Y-39346995D02*
X168619728Y-39585090D01*
X168381633Y-39489852D02*
X168619728Y-39585090D01*
X168619728Y-39585090D02*
X168857823Y-39489852D01*
X168476871Y-39775566D02*
X168619728Y-39585090D01*
X168619728Y-39585090D02*
X168762585Y-39775566D01*
X150440476Y-122334819D02*
X150440476Y-123049104D01*
X150440476Y-123049104D02*
X150392857Y-123191961D01*
X150392857Y-123191961D02*
X150297619Y-123287200D01*
X150297619Y-123287200D02*
X150154762Y-123334819D01*
X150154762Y-123334819D02*
X150059524Y-123334819D01*
X151440476Y-123334819D02*
X150869048Y-123334819D01*
X151154762Y-123334819D02*
X151154762Y-122334819D01*
X151154762Y-122334819D02*
X151059524Y-122477676D01*
X151059524Y-122477676D02*
X150964286Y-122572914D01*
X150964286Y-122572914D02*
X150869048Y-122620533D01*
X152059524Y-122334819D02*
X152154762Y-122334819D01*
X152154762Y-122334819D02*
X152250000Y-122382438D01*
X152250000Y-122382438D02*
X152297619Y-122430057D01*
X152297619Y-122430057D02*
X152345238Y-122525295D01*
X152345238Y-122525295D02*
X152392857Y-122715771D01*
X152392857Y-122715771D02*
X152392857Y-122953866D01*
X152392857Y-122953866D02*
X152345238Y-123144342D01*
X152345238Y-123144342D02*
X152297619Y-123239580D01*
X152297619Y-123239580D02*
X152250000Y-123287200D01*
X152250000Y-123287200D02*
X152154762Y-123334819D01*
X152154762Y-123334819D02*
X152059524Y-123334819D01*
X152059524Y-123334819D02*
X151964286Y-123287200D01*
X151964286Y-123287200D02*
X151916667Y-123239580D01*
X151916667Y-123239580D02*
X151869048Y-123144342D01*
X151869048Y-123144342D02*
X151821429Y-122953866D01*
X151821429Y-122953866D02*
X151821429Y-122715771D01*
X151821429Y-122715771D02*
X151869048Y-122525295D01*
X151869048Y-122525295D02*
X151916667Y-122430057D01*
X151916667Y-122430057D02*
X151964286Y-122382438D01*
X151964286Y-122382438D02*
X152059524Y-122334819D01*
X143666666Y-68074819D02*
X143666666Y-68789104D01*
X143666666Y-68789104D02*
X143619047Y-68931961D01*
X143619047Y-68931961D02*
X143523809Y-69027200D01*
X143523809Y-69027200D02*
X143380952Y-69074819D01*
X143380952Y-69074819D02*
X143285714Y-69074819D01*
X144571428Y-68408152D02*
X144571428Y-69074819D01*
X144333333Y-68027200D02*
X144095238Y-68741485D01*
X144095238Y-68741485D02*
X144714285Y-68741485D01*
X134511905Y-33834819D02*
X134511905Y-32834819D01*
X134511905Y-32834819D02*
X134750000Y-32834819D01*
X134750000Y-32834819D02*
X134892857Y-32882438D01*
X134892857Y-32882438D02*
X134988095Y-32977676D01*
X134988095Y-32977676D02*
X135035714Y-33072914D01*
X135035714Y-33072914D02*
X135083333Y-33263390D01*
X135083333Y-33263390D02*
X135083333Y-33406247D01*
X135083333Y-33406247D02*
X135035714Y-33596723D01*
X135035714Y-33596723D02*
X134988095Y-33691961D01*
X134988095Y-33691961D02*
X134892857Y-33787200D01*
X134892857Y-33787200D02*
X134750000Y-33834819D01*
X134750000Y-33834819D02*
X134511905Y-33834819D01*
X136035714Y-33834819D02*
X135464286Y-33834819D01*
X135750000Y-33834819D02*
X135750000Y-32834819D01*
X135750000Y-32834819D02*
X135654762Y-32977676D01*
X135654762Y-32977676D02*
X135559524Y-33072914D01*
X135559524Y-33072914D02*
X135464286Y-33120533D01*
X118753333Y-64584819D02*
X118420000Y-64108628D01*
X118181905Y-64584819D02*
X118181905Y-63584819D01*
X118181905Y-63584819D02*
X118562857Y-63584819D01*
X118562857Y-63584819D02*
X118658095Y-63632438D01*
X118658095Y-63632438D02*
X118705714Y-63680057D01*
X118705714Y-63680057D02*
X118753333Y-63775295D01*
X118753333Y-63775295D02*
X118753333Y-63918152D01*
X118753333Y-63918152D02*
X118705714Y-64013390D01*
X118705714Y-64013390D02*
X118658095Y-64061009D01*
X118658095Y-64061009D02*
X118562857Y-64108628D01*
X118562857Y-64108628D02*
X118181905Y-64108628D01*
X119086667Y-63584819D02*
X119705714Y-63584819D01*
X119705714Y-63584819D02*
X119372381Y-63965771D01*
X119372381Y-63965771D02*
X119515238Y-63965771D01*
X119515238Y-63965771D02*
X119610476Y-64013390D01*
X119610476Y-64013390D02*
X119658095Y-64061009D01*
X119658095Y-64061009D02*
X119705714Y-64156247D01*
X119705714Y-64156247D02*
X119705714Y-64394342D01*
X119705714Y-64394342D02*
X119658095Y-64489580D01*
X119658095Y-64489580D02*
X119610476Y-64537200D01*
X119610476Y-64537200D02*
X119515238Y-64584819D01*
X119515238Y-64584819D02*
X119229524Y-64584819D01*
X119229524Y-64584819D02*
X119134286Y-64537200D01*
X119134286Y-64537200D02*
X119086667Y-64489580D01*
X120916666Y-49334819D02*
X120916666Y-50049104D01*
X120916666Y-50049104D02*
X120869047Y-50191961D01*
X120869047Y-50191961D02*
X120773809Y-50287200D01*
X120773809Y-50287200D02*
X120630952Y-50334819D01*
X120630952Y-50334819D02*
X120535714Y-50334819D01*
X121869047Y-49334819D02*
X121392857Y-49334819D01*
X121392857Y-49334819D02*
X121345238Y-49811009D01*
X121345238Y-49811009D02*
X121392857Y-49763390D01*
X121392857Y-49763390D02*
X121488095Y-49715771D01*
X121488095Y-49715771D02*
X121726190Y-49715771D01*
X121726190Y-49715771D02*
X121821428Y-49763390D01*
X121821428Y-49763390D02*
X121869047Y-49811009D01*
X121869047Y-49811009D02*
X121916666Y-49906247D01*
X121916666Y-49906247D02*
X121916666Y-50144342D01*
X121916666Y-50144342D02*
X121869047Y-50239580D01*
X121869047Y-50239580D02*
X121821428Y-50287200D01*
X121821428Y-50287200D02*
X121726190Y-50334819D01*
X121726190Y-50334819D02*
X121488095Y-50334819D01*
X121488095Y-50334819D02*
X121392857Y-50287200D01*
X121392857Y-50287200D02*
X121345238Y-50239580D01*
X94190476Y-49334819D02*
X94190476Y-50049104D01*
X94190476Y-50049104D02*
X94142857Y-50191961D01*
X94142857Y-50191961D02*
X94047619Y-50287200D01*
X94047619Y-50287200D02*
X93904762Y-50334819D01*
X93904762Y-50334819D02*
X93809524Y-50334819D01*
X95190476Y-50334819D02*
X94619048Y-50334819D01*
X94904762Y-50334819D02*
X94904762Y-49334819D01*
X94904762Y-49334819D02*
X94809524Y-49477676D01*
X94809524Y-49477676D02*
X94714286Y-49572914D01*
X94714286Y-49572914D02*
X94619048Y-49620533D01*
X95571429Y-49430057D02*
X95619048Y-49382438D01*
X95619048Y-49382438D02*
X95714286Y-49334819D01*
X95714286Y-49334819D02*
X95952381Y-49334819D01*
X95952381Y-49334819D02*
X96047619Y-49382438D01*
X96047619Y-49382438D02*
X96095238Y-49430057D01*
X96095238Y-49430057D02*
X96142857Y-49525295D01*
X96142857Y-49525295D02*
X96142857Y-49620533D01*
X96142857Y-49620533D02*
X96095238Y-49763390D01*
X96095238Y-49763390D02*
X95523810Y-50334819D01*
X95523810Y-50334819D02*
X96142857Y-50334819D01*
X132753333Y-72584819D02*
X132420000Y-72108628D01*
X132181905Y-72584819D02*
X132181905Y-71584819D01*
X132181905Y-71584819D02*
X132562857Y-71584819D01*
X132562857Y-71584819D02*
X132658095Y-71632438D01*
X132658095Y-71632438D02*
X132705714Y-71680057D01*
X132705714Y-71680057D02*
X132753333Y-71775295D01*
X132753333Y-71775295D02*
X132753333Y-71918152D01*
X132753333Y-71918152D02*
X132705714Y-72013390D01*
X132705714Y-72013390D02*
X132658095Y-72061009D01*
X132658095Y-72061009D02*
X132562857Y-72108628D01*
X132562857Y-72108628D02*
X132181905Y-72108628D01*
X133705714Y-72584819D02*
X133134286Y-72584819D01*
X133420000Y-72584819D02*
X133420000Y-71584819D01*
X133420000Y-71584819D02*
X133324762Y-71727676D01*
X133324762Y-71727676D02*
X133229524Y-71822914D01*
X133229524Y-71822914D02*
X133134286Y-71870533D01*
%TO.C,R6*%
D11*
X93630000Y-72690000D02*
X96370000Y-72690000D01*
X96370000Y-66150000D01*
X93630000Y-66150000D01*
X93630000Y-72690000D01*
X95000000Y-73460000D02*
X95000000Y-72690000D01*
X95000000Y-65380000D02*
X95000000Y-66150000D01*
%TO.C,J3*%
X157860000Y-69620000D02*
X159240000Y-69620000D01*
X157860000Y-71000000D02*
X157860000Y-69620000D01*
X157860000Y-72270000D02*
X157860000Y-107940000D01*
X157860000Y-72270000D02*
X160620000Y-72270000D01*
X157860000Y-107940000D02*
X160620000Y-107940000D01*
X160620000Y-72270000D02*
X160620000Y-107940000D01*
%TO.C,BZ1*%
X64600000Y-96000000D02*
G75*
G02*
X52400000Y-96000000I-6100000J0D01*
G01*
X52400000Y-96000000D02*
G75*
G02*
X64600000Y-96000000I6100000J0D01*
G01*
%TO.C,J7*%
X52880000Y-125880000D02*
X60920000Y-125880000D01*
X52880000Y-141620000D02*
X52880000Y-125880000D01*
X56500000Y-126688000D02*
X56500000Y-125880000D01*
X56500000Y-131688000D02*
X56500000Y-130312000D01*
X56500000Y-136620000D02*
X56500000Y-135312000D01*
X56500000Y-141620000D02*
X56500000Y-140380000D01*
X57500000Y-126688000D02*
X57500000Y-125880000D01*
X57500000Y-131688000D02*
X57500000Y-130312000D01*
X57500000Y-136620000D02*
X57500000Y-135312000D01*
X57500000Y-141620000D02*
X57500000Y-140380000D01*
X58800000Y-127957000D02*
X58800000Y-125880000D01*
X58800000Y-132957000D02*
X58800000Y-129043000D01*
X58800000Y-136620000D02*
X58800000Y-134043000D01*
X58800000Y-141620000D02*
X58800000Y-140380000D01*
X60920000Y-125880000D02*
X60920000Y-138200000D01*
X60920000Y-138800000D02*
X60920000Y-141620000D01*
X60920000Y-141620000D02*
X52880000Y-141620000D01*
X61530000Y-138940000D02*
X60920000Y-138500000D01*
X61530000Y-138060000D01*
X61530000Y-138940000D01*
G36*
X61530000Y-138940000D02*
G01*
X60920000Y-138500000D01*
X61530000Y-138060000D01*
X61530000Y-138940000D01*
G37*
%TO.C,R4*%
X114880000Y-74000000D02*
X115650000Y-74000000D01*
X122960000Y-74000000D02*
X122190000Y-74000000D01*
X115650000Y-72630000D02*
X122190000Y-72630000D01*
X122190000Y-75370000D01*
X115650000Y-75370000D01*
X115650000Y-72630000D01*
%TO.C,Q1*%
X128390000Y-63190000D02*
X138610000Y-63190000D01*
X128390000Y-64570000D02*
X138610000Y-64570000D01*
X128390000Y-67810000D02*
X128390000Y-63190000D01*
X131650000Y-63190000D02*
X131650000Y-64570000D01*
X135350000Y-63190000D02*
X135350000Y-64570000D01*
X138610000Y-63190000D02*
X138610000Y-67810000D01*
X138610000Y-67810000D02*
X128390000Y-67810000D01*
%TO.C,J9*%
X60880000Y-50880000D02*
X68920000Y-50880000D01*
X60880000Y-71620000D02*
X60880000Y-50880000D01*
X64500000Y-51688000D02*
X64500000Y-50880000D01*
X64500000Y-56688000D02*
X64500000Y-55312000D01*
X64500000Y-61688000D02*
X64500000Y-60312000D01*
X64500000Y-66620000D02*
X64500000Y-65312000D01*
X64500000Y-71620000D02*
X64500000Y-70380000D01*
X65500000Y-51688000D02*
X65500000Y-50880000D01*
X65500000Y-56688000D02*
X65500000Y-55312000D01*
X65500000Y-61688000D02*
X65500000Y-60312000D01*
X65500000Y-66620000D02*
X65500000Y-65312000D01*
X65500000Y-71620000D02*
X65500000Y-70380000D01*
X66800000Y-52957000D02*
X66800000Y-50880000D01*
X66800000Y-57957000D02*
X66800000Y-54043000D01*
X66800000Y-62957000D02*
X66800000Y-59043000D01*
X66800000Y-66620000D02*
X66800000Y-64043000D01*
X66800000Y-71620000D02*
X66800000Y-70380000D01*
X68920000Y-50880000D02*
X68920000Y-68200000D01*
X68920000Y-68800000D02*
X68920000Y-71620000D01*
X68920000Y-71620000D02*
X60880000Y-71620000D01*
X69530000Y-68940000D02*
X68920000Y-68500000D01*
X69530000Y-68060000D01*
X69530000Y-68940000D01*
G36*
X69530000Y-68940000D02*
G01*
X68920000Y-68500000D01*
X69530000Y-68060000D01*
X69530000Y-68940000D01*
G37*
%TO.C,J11*%
X140380000Y-50880000D02*
X161120000Y-50880000D01*
X140380000Y-54500000D02*
X141620000Y-54500000D01*
X140380000Y-55500000D02*
X141620000Y-55500000D01*
X140380000Y-56800000D02*
X141620000Y-56800000D01*
X140380000Y-58920000D02*
X140380000Y-50880000D01*
X143200000Y-58920000D02*
X140380000Y-58920000D01*
X145380000Y-54500000D02*
X146688000Y-54500000D01*
X145380000Y-55500000D02*
X146688000Y-55500000D01*
X145380000Y-56800000D02*
X147957000Y-56800000D01*
X149043000Y-56800000D02*
X152957000Y-56800000D01*
X150312000Y-54500000D02*
X151688000Y-54500000D01*
X150312000Y-55500000D02*
X151688000Y-55500000D01*
X154043000Y-56800000D02*
X157957000Y-56800000D01*
X155312000Y-54500000D02*
X156688000Y-54500000D01*
X155312000Y-55500000D02*
X156688000Y-55500000D01*
X159043000Y-56800000D02*
X161120000Y-56800000D01*
X160312000Y-54500000D02*
X161120000Y-54500000D01*
X160312000Y-55500000D02*
X161120000Y-55500000D01*
X161120000Y-50880000D02*
X161120000Y-58920000D01*
X161120000Y-58920000D02*
X143800000Y-58920000D01*
X143940000Y-59530000D02*
X143060000Y-59530000D01*
X143500000Y-58920000D01*
X143940000Y-59530000D01*
G36*
X143940000Y-59530000D02*
G01*
X143060000Y-59530000D01*
X143500000Y-58920000D01*
X143940000Y-59530000D01*
G37*
%TO.C,J8*%
X84540000Y-129880000D02*
X84540000Y-128500000D01*
X85920000Y-129880000D02*
X84540000Y-129880000D01*
X87190000Y-127120000D02*
X105080000Y-127120000D01*
X87190000Y-129880000D02*
X87190000Y-127120000D01*
X87190000Y-129880000D02*
X105080000Y-129880000D01*
X105080000Y-129880000D02*
X105080000Y-127120000D01*
%TO.C,R7*%
X57380000Y-81500000D02*
X58150000Y-81500000D01*
X65460000Y-81500000D02*
X64690000Y-81500000D01*
X58150000Y-80130000D02*
X64690000Y-80130000D01*
X64690000Y-82870000D01*
X58150000Y-82870000D01*
X58150000Y-80130000D01*
%TO.C,J2*%
X81620000Y-69620000D02*
X83000000Y-69620000D01*
X81620000Y-71000000D02*
X81620000Y-69620000D01*
X81620000Y-72270000D02*
X81620000Y-107940000D01*
X81620000Y-72270000D02*
X84380000Y-72270000D01*
X81620000Y-107940000D02*
X84380000Y-107940000D01*
X84380000Y-72270000D02*
X84380000Y-107940000D01*
%TO.C,R2*%
X129040000Y-81000000D02*
X129810000Y-81000000D01*
X137120000Y-81000000D02*
X136350000Y-81000000D01*
X129810000Y-79630000D02*
X136350000Y-79630000D01*
X136350000Y-82370000D01*
X129810000Y-82370000D01*
X129810000Y-79630000D01*
%TO.C,J6*%
X52880000Y-106880000D02*
X60920000Y-106880000D01*
X52880000Y-122620000D02*
X52880000Y-106880000D01*
X56500000Y-107688000D02*
X56500000Y-106880000D01*
X56500000Y-112688000D02*
X56500000Y-111312000D01*
X56500000Y-117620000D02*
X56500000Y-116312000D01*
X56500000Y-122620000D02*
X56500000Y-121380000D01*
X57500000Y-107688000D02*
X57500000Y-106880000D01*
X57500000Y-112688000D02*
X57500000Y-111312000D01*
X57500000Y-117620000D02*
X57500000Y-116312000D01*
X57500000Y-122620000D02*
X57500000Y-121380000D01*
X58800000Y-108957000D02*
X58800000Y-106880000D01*
X58800000Y-113957000D02*
X58800000Y-110043000D01*
X58800000Y-117620000D02*
X58800000Y-115043000D01*
X58800000Y-122620000D02*
X58800000Y-121380000D01*
X60920000Y-106880000D02*
X60920000Y-119200000D01*
X60920000Y-119800000D02*
X60920000Y-122620000D01*
X60920000Y-122620000D02*
X52880000Y-122620000D01*
X61530000Y-119940000D02*
X60920000Y-119500000D01*
X61530000Y-119060000D01*
X61530000Y-119940000D01*
G36*
X61530000Y-119940000D02*
G01*
X60920000Y-119500000D01*
X61530000Y-119060000D01*
X61530000Y-119940000D01*
G37*
%TO.C,J1*%
X104480000Y-69620000D02*
X105860000Y-69620000D01*
X104480000Y-71000000D02*
X104480000Y-69620000D01*
X104480000Y-72270000D02*
X104480000Y-107940000D01*
X104480000Y-72270000D02*
X107240000Y-72270000D01*
X104480000Y-107940000D02*
X107240000Y-107940000D01*
X107240000Y-72270000D02*
X107240000Y-107940000D01*
%TO.C,J10*%
X135880000Y-123880000D02*
X166620000Y-123880000D01*
X135880000Y-127500000D02*
X137120000Y-127500000D01*
X135880000Y-128500000D02*
X137120000Y-128500000D01*
X135880000Y-129800000D02*
X137120000Y-129800000D01*
X135880000Y-131920000D02*
X135880000Y-123880000D01*
X138700000Y-131920000D02*
X135880000Y-131920000D01*
X140880000Y-127500000D02*
X142188000Y-127500000D01*
X140880000Y-128500000D02*
X142188000Y-128500000D01*
X140880000Y-129800000D02*
X143457000Y-129800000D01*
X144543000Y-129800000D02*
X148457000Y-129800000D01*
X145812000Y-127500000D02*
X147188000Y-127500000D01*
X145812000Y-128500000D02*
X147188000Y-128500000D01*
X149543000Y-129800000D02*
X153457000Y-129800000D01*
X150812000Y-127500000D02*
X152188000Y-127500000D01*
X150812000Y-128500000D02*
X152188000Y-128500000D01*
X154543000Y-129800000D02*
X158457000Y-129800000D01*
X155812000Y-127500000D02*
X157188000Y-127500000D01*
X155812000Y-128500000D02*
X157188000Y-128500000D01*
X159543000Y-129800000D02*
X163457000Y-129800000D01*
X160812000Y-127500000D02*
X162188000Y-127500000D01*
X160812000Y-128500000D02*
X162188000Y-128500000D01*
X164543000Y-129800000D02*
X166620000Y-129800000D01*
X165812000Y-127500000D02*
X166620000Y-127500000D01*
X165812000Y-128500000D02*
X166620000Y-128500000D01*
X166620000Y-123880000D02*
X166620000Y-131920000D01*
X166620000Y-131920000D02*
X139300000Y-131920000D01*
X139440000Y-132530000D02*
X138560000Y-132530000D01*
X139000000Y-131920000D01*
X139440000Y-132530000D01*
G36*
X139440000Y-132530000D02*
G01*
X138560000Y-132530000D01*
X139000000Y-131920000D01*
X139440000Y-132530000D01*
G37*
%TO.C,J4*%
X142620000Y-69620000D02*
X144000000Y-69620000D01*
X142620000Y-71000000D02*
X142620000Y-69620000D01*
X142620000Y-72270000D02*
X142620000Y-107940000D01*
X142620000Y-72270000D02*
X145380000Y-72270000D01*
X142620000Y-107940000D02*
X145380000Y-107940000D01*
X145380000Y-72270000D02*
X145380000Y-107940000D01*
%TO.C,D1*%
X129880000Y-34380000D02*
X140620000Y-34380000D01*
X129880000Y-38000000D02*
X131120000Y-38000000D01*
X129880000Y-39000000D02*
X131120000Y-39000000D01*
X129880000Y-40300000D02*
X131120000Y-40300000D01*
X129880000Y-42420000D02*
X129880000Y-34380000D01*
X132700000Y-42420000D02*
X129880000Y-42420000D01*
X134880000Y-38000000D02*
X136188000Y-38000000D01*
X134880000Y-39000000D02*
X136188000Y-39000000D01*
X134880000Y-40300000D02*
X137457000Y-40300000D01*
X138543000Y-40300000D02*
X140620000Y-40300000D01*
X139812000Y-38000000D02*
X140620000Y-38000000D01*
X139812000Y-39000000D02*
X140620000Y-39000000D01*
X140620000Y-34380000D02*
X140620000Y-42420000D01*
X140620000Y-42420000D02*
X133300000Y-42420000D01*
X133440000Y-43030000D02*
X132560000Y-43030000D01*
X133000000Y-42420000D01*
X133440000Y-43030000D01*
G36*
X133440000Y-43030000D02*
G01*
X132560000Y-43030000D01*
X133000000Y-42420000D01*
X133440000Y-43030000D01*
G37*
%TO.C,R3*%
X114880000Y-66500000D02*
X115650000Y-66500000D01*
X122960000Y-66500000D02*
X122190000Y-66500000D01*
X115650000Y-65130000D02*
X122190000Y-65130000D01*
X122190000Y-67870000D01*
X115650000Y-67870000D01*
X115650000Y-65130000D01*
%TO.C,J5*%
X115880000Y-50880000D02*
X126620000Y-50880000D01*
X115880000Y-54500000D02*
X117120000Y-54500000D01*
X115880000Y-55500000D02*
X117120000Y-55500000D01*
X115880000Y-56800000D02*
X117120000Y-56800000D01*
X115880000Y-58920000D02*
X115880000Y-50880000D01*
X118700000Y-58920000D02*
X115880000Y-58920000D01*
X120880000Y-54500000D02*
X122188000Y-54500000D01*
X120880000Y-55500000D02*
X122188000Y-55500000D01*
X120880000Y-56800000D02*
X123457000Y-56800000D01*
X124543000Y-56800000D02*
X126620000Y-56800000D01*
X125812000Y-54500000D02*
X126620000Y-54500000D01*
X125812000Y-55500000D02*
X126620000Y-55500000D01*
X126620000Y-50880000D02*
X126620000Y-58920000D01*
X126620000Y-58920000D02*
X119300000Y-58920000D01*
X119440000Y-59530000D02*
X118560000Y-59530000D01*
X119000000Y-58920000D01*
X119440000Y-59530000D01*
G36*
X119440000Y-59530000D02*
G01*
X118560000Y-59530000D01*
X119000000Y-58920000D01*
X119440000Y-59530000D01*
G37*
%TO.C,R5*%
X70000000Y-112040000D02*
X70000000Y-112810000D01*
X70000000Y-120120000D02*
X70000000Y-119350000D01*
X68630000Y-119350000D02*
X71370000Y-119350000D01*
X71370000Y-112810000D01*
X68630000Y-112810000D01*
X68630000Y-119350000D01*
%TO.C,J12*%
X89630000Y-50880000D02*
X100370000Y-50880000D01*
X89630000Y-54500000D02*
X90870000Y-54500000D01*
X89630000Y-55500000D02*
X90870000Y-55500000D01*
X89630000Y-56800000D02*
X90870000Y-56800000D01*
X89630000Y-58920000D02*
X89630000Y-50880000D01*
X92450000Y-58920000D02*
X89630000Y-58920000D01*
X94630000Y-54500000D02*
X95938000Y-54500000D01*
X94630000Y-55500000D02*
X95938000Y-55500000D01*
X94630000Y-56800000D02*
X97207000Y-56800000D01*
X98293000Y-56800000D02*
X100370000Y-56800000D01*
X99562000Y-54500000D02*
X100370000Y-54500000D01*
X99562000Y-55500000D02*
X100370000Y-55500000D01*
X100370000Y-50880000D02*
X100370000Y-58920000D01*
X100370000Y-58920000D02*
X93050000Y-58920000D01*
X93190000Y-59530000D02*
X92310000Y-59530000D01*
X92750000Y-58920000D01*
X93190000Y-59530000D01*
G36*
X93190000Y-59530000D02*
G01*
X92310000Y-59530000D01*
X92750000Y-58920000D01*
X93190000Y-59530000D01*
G37*
%TO.C,R1*%
X128880000Y-74500000D02*
X129650000Y-74500000D01*
X136960000Y-74500000D02*
X136190000Y-74500000D01*
X129650000Y-73130000D02*
X136190000Y-73130000D01*
X136190000Y-75870000D01*
X129650000Y-75870000D01*
X129650000Y-73130000D01*
%TD*%
M02*
