%TF.GenerationSoftware,KiCad,Pcbnew,9.0.5*%
%TF.CreationDate,2026-07-02T22:36:49-04:00*%
%TF.ProjectId,Electric Skateboard,456c6563-7472-4696-9320-536b61746562,rev?*%
%TF.SameCoordinates,Original*%
%TF.FileFunction,Copper,L2,Bot*%
%TF.FilePolarity,Positive*%
%FSLAX46Y46*%
G04 Gerber Fmt 4.6, Leading zero omitted, Abs format (unit mm)*
G04 Created by KiCad (PCBNEW 9.0.5) date 2026-07-02 22:36:49*
%MOMM*%
%LPD*%
G01*
G04 APERTURE LIST*
G04 Aperture macros list*
%AMRoundRect*
0 Rectangle with rounded corners*
0 $1 Rounding radius*
0 $2 $3 $4 $5 $6 $7 $8 $9 X,Y pos of 4 corners*
0 Add a 4 corners polygon primitive as box body*
4,1,4,$2,$3,$4,$5,$6,$7,$8,$9,$2,$3,0*
0 Add four circle primitives for the rounded corners*
1,1,$1+$1,$2,$3*
1,1,$1+$1,$4,$5*
1,1,$1+$1,$6,$7*
1,1,$1+$1,$8,$9*
0 Add four rect primitives between the rounded corners*
20,1,$1+$1,$2,$3,$4,$5,0*
20,1,$1+$1,$4,$5,$6,$7,0*
20,1,$1+$1,$6,$7,$8,$9,0*
20,1,$1+$1,$8,$9,$2,$3,0*%
G04 Aperture macros list end*
%TA.AperFunction,ComponentPad*%
%ADD10C,1.600000*%
%TD*%
%TA.AperFunction,ComponentPad*%
%ADD11R,1.700000X1.700000*%
%TD*%
%TA.AperFunction,ComponentPad*%
%ADD12C,1.700000*%
%TD*%
%TA.AperFunction,ComponentPad*%
%ADD13R,2.000000X2.000000*%
%TD*%
%TA.AperFunction,ComponentPad*%
%ADD14C,2.000000*%
%TD*%
%TA.AperFunction,ComponentPad*%
%ADD15RoundRect,0.250001X1.149999X-1.149999X1.149999X1.149999X-1.149999X1.149999X-1.149999X-1.149999X0*%
%TD*%
%TA.AperFunction,ComponentPad*%
%ADD16C,2.800000*%
%TD*%
%TA.AperFunction,ComponentPad*%
%ADD17R,1.905000X2.000000*%
%TD*%
%TA.AperFunction,ComponentPad*%
%ADD18O,1.905000X2.000000*%
%TD*%
%TA.AperFunction,ComponentPad*%
%ADD19RoundRect,0.250001X-1.149999X-1.149999X1.149999X-1.149999X1.149999X1.149999X-1.149999X1.149999X0*%
%TD*%
%TA.AperFunction,Conductor*%
%ADD20C,0.500000*%
%TD*%
%TA.AperFunction,Conductor*%
%ADD21C,0.400000*%
%TD*%
G04 APERTURE END LIST*
D10*
%TO.P,R6,2*%
%TO.N,GND*%
X95000000Y-64340000D03*
%TO.P,R6,1*%
%TO.N,/GPIO34*%
X95000000Y-74500000D03*
%TD*%
D11*
%TO.P,J3,1,Pin_1*%
%TO.N,unconnected-(J3-Pin_1-Pad1)*%
X159240000Y-71000000D03*
D12*
%TO.P,J3,2,Pin_2*%
%TO.N,GND*%
X159240000Y-73540000D03*
%TO.P,J3,3,Pin_3*%
%TO.N,/<NO NET>*%
X159240000Y-76080000D03*
%TO.P,J3,4,Pin_4*%
%TO.N,/5V*%
X159240000Y-78620000D03*
%TO.P,J3,5,Pin_5*%
%TO.N,/A7*%
X159240000Y-81160000D03*
%TO.P,J3,6,Pin_6*%
%TO.N,/A6*%
X159240000Y-83700000D03*
%TO.P,J3,7,Pin_7*%
%TO.N,/A5*%
X159240000Y-86240000D03*
%TO.P,J3,8,Pin_8*%
%TO.N,/A4*%
X159240000Y-88780000D03*
%TO.P,J3,9,Pin_9*%
%TO.N,/A3*%
X159240000Y-91320000D03*
%TO.P,J3,10,Pin_10*%
%TO.N,/A2*%
X159240000Y-93860000D03*
%TO.P,J3,11,Pin_11*%
%TO.N,/A1*%
X159240000Y-96400000D03*
%TO.P,J3,12,Pin_12*%
%TO.N,/A0*%
X159240000Y-98940000D03*
%TO.P,J3,13,Pin_13*%
%TO.N,/REF*%
X159240000Y-101480000D03*
%TO.P,J3,14,Pin_14*%
%TO.N,unconnected-(J3-Pin_14-Pad14)*%
X159240000Y-104020000D03*
%TO.P,J3,15,Pin_15*%
%TO.N,/D13*%
X159240000Y-106560000D03*
%TD*%
D13*
%TO.P,BZ1,1,+*%
%TO.N,Net-(BZ1-+)*%
X54700000Y-96000000D03*
D14*
%TO.P,BZ1,2,-*%
%TO.N,GND*%
X62300000Y-96000000D03*
%TD*%
D15*
%TO.P,J7,1,Pin_1*%
%TO.N,GND*%
X57000000Y-138500000D03*
D16*
%TO.P,J7,2,Pin_2*%
%TO.N,/5V (iso)+*%
X57000000Y-133500000D03*
%TO.P,J7,3,Pin_3*%
%TO.N,/GPIO25*%
X57000000Y-128500000D03*
%TD*%
D10*
%TO.P,R4,1*%
%TO.N,/Gate*%
X113840000Y-74000000D03*
%TO.P,R4,2*%
%TO.N,GND*%
X124000000Y-74000000D03*
%TD*%
D17*
%TO.P,Q1,1,G*%
%TO.N,/Gate*%
X130960000Y-66450000D03*
D18*
%TO.P,Q1,2,D*%
%TO.N,/Drain*%
X133500000Y-66450000D03*
%TO.P,Q1,3,S*%
%TO.N,GND*%
X136040000Y-66450000D03*
%TD*%
D15*
%TO.P,J9,1,Pin_1*%
%TO.N,/GPIO21*%
X65000000Y-68500000D03*
D16*
%TO.P,J9,2,Pin_2*%
%TO.N,/GPIO22*%
X65000000Y-63500000D03*
%TO.P,J9,3,Pin_3*%
%TO.N,/3V3*%
X65000000Y-58500000D03*
%TO.P,J9,4,Pin_4*%
%TO.N,GND*%
X65000000Y-53500000D03*
%TD*%
D19*
%TO.P,J11,1,Pin_1*%
%TO.N,GND*%
X143500000Y-55000000D03*
D16*
%TO.P,J11,2,Pin_2*%
%TO.N,/D4*%
X148500000Y-55000000D03*
%TO.P,J11,3,Pin_3*%
%TO.N,/D3*%
X153500000Y-55000000D03*
%TO.P,J11,4,Pin_4*%
%TO.N,/5V*%
X158500000Y-55000000D03*
%TD*%
D11*
%TO.P,J8,1,Pin_1*%
%TO.N,/3V3*%
X85920000Y-128500000D03*
D12*
%TO.P,J8,2,Pin_2*%
%TO.N,GND*%
X88460000Y-128500000D03*
%TO.P,J8,3,Pin_3*%
%TO.N,/GPIO22*%
X91000000Y-128500000D03*
%TO.P,J8,4,Pin_4*%
%TO.N,/GPIO21*%
X93540000Y-128500000D03*
%TO.P,J8,5,Pin_5*%
%TO.N,unconnected-(J8-Pin_5-Pad5)*%
X96080000Y-128500000D03*
%TO.P,J8,6,Pin_6*%
%TO.N,unconnected-(J8-Pin_6-Pad6)*%
X98620000Y-128500000D03*
%TO.P,J8,7,Pin_7*%
%TO.N,unconnected-(J8-Pin_7-Pad7)*%
X101160000Y-128500000D03*
%TO.P,J8,8,Pin_8*%
%TO.N,unconnected-(J8-Pin_8-Pad8)*%
X103700000Y-128500000D03*
%TD*%
D10*
%TO.P,R7,1*%
%TO.N,Net-(BZ1-+)*%
X56340000Y-81500000D03*
%TO.P,R7,2*%
%TO.N,/GPIO26*%
X66500000Y-81500000D03*
%TD*%
D11*
%TO.P,J2,1,Pin_1*%
%TO.N,/EN*%
X83000000Y-71000000D03*
D12*
%TO.P,J2,2,Pin_2*%
%TO.N,/GPIO36(VP)*%
X83000000Y-73540000D03*
%TO.P,J2,3,Pin_3*%
%TO.N,/GPIO39(VN)*%
X83000000Y-76080000D03*
%TO.P,J2,4,Pin_4*%
%TO.N,/GPIO34*%
X83000000Y-78620000D03*
%TO.P,J2,5,Pin_5*%
%TO.N,/GPIO35*%
X83000000Y-81160000D03*
%TO.P,J2,6,Pin_6*%
%TO.N,/GPIO32*%
X83000000Y-83700000D03*
%TO.P,J2,7,Pin_7*%
%TO.N,/GPIO33*%
X83000000Y-86240000D03*
%TO.P,J2,8,Pin_8*%
%TO.N,/GPIO25*%
X83000000Y-88780000D03*
%TO.P,J2,9,Pin_9*%
%TO.N,/GPIO26*%
X83000000Y-91320000D03*
%TO.P,J2,10,Pin_10*%
%TO.N,/GPIO27*%
X83000000Y-93860000D03*
%TO.P,J2,11,Pin_11*%
%TO.N,/GPIO14*%
X83000000Y-96400000D03*
%TO.P,J2,12,Pin_12*%
%TO.N,/GPIO12*%
X83000000Y-98940000D03*
%TO.P,J2,13,Pin_13*%
%TO.N,/GPIO13*%
X83000000Y-101480000D03*
%TO.P,J2,14,Pin_14*%
%TO.N,GND*%
X83000000Y-104020000D03*
%TO.P,J2,15,Pin_15*%
%TO.N,/5V*%
X83000000Y-106560000D03*
%TD*%
D10*
%TO.P,R2,1*%
%TO.N,/GPIO16(RX2)*%
X128000000Y-81000000D03*
%TO.P,R2,2*%
%TO.N,GND*%
X138160000Y-81000000D03*
%TD*%
D15*
%TO.P,J6,1,Pin_1*%
%TO.N,/Signal*%
X57000000Y-119500000D03*
D16*
%TO.P,J6,2,Pin_2*%
%TO.N,GND*%
X57000000Y-114500000D03*
%TO.P,J6,3,Pin_3*%
%TO.N,/5V (iso)+*%
X57000000Y-109500000D03*
%TD*%
D11*
%TO.P,J1,1,Pin_1*%
%TO.N,/<NO NET>*%
X105860000Y-71000000D03*
D12*
%TO.P,J1,2,Pin_2*%
%TO.N,/GPIO22*%
X105860000Y-73540000D03*
%TO.P,J1,3,Pin_3*%
%TO.N,/GPIO1(TX0)*%
X105860000Y-76080000D03*
%TO.P,J1,4,Pin_4*%
%TO.N,/GPIO3(RX0)*%
X105860000Y-78620000D03*
%TO.P,J1,5,Pin_5*%
%TO.N,/GPIO21*%
X105860000Y-81160000D03*
%TO.P,J1,6,Pin_6*%
%TO.N,/GPIO19*%
X105860000Y-83700000D03*
%TO.P,J1,7,Pin_7*%
%TO.N,/GPIO18*%
X105860000Y-86240000D03*
%TO.P,J1,8,Pin_8*%
%TO.N,/GPIO5*%
X105860000Y-88780000D03*
%TO.P,J1,9,Pin_9*%
%TO.N,/GPIO17(TX2)*%
X105860000Y-91320000D03*
%TO.P,J1,10,Pin_10*%
%TO.N,/GPIO16(RX2)*%
X105860000Y-93860000D03*
%TO.P,J1,11,Pin_11*%
%TO.N,/GPIO4*%
X105860000Y-96400000D03*
%TO.P,J1,12,Pin_12*%
%TO.N,/GPIO2*%
X105860000Y-98940000D03*
%TO.P,J1,13,Pin_13*%
%TO.N,/GPIO15*%
X105860000Y-101480000D03*
%TO.P,J1,14,Pin_14*%
%TO.N,GND*%
X105860000Y-104020000D03*
%TO.P,J1,15,Pin_15*%
%TO.N,/3V3*%
X105860000Y-106560000D03*
%TD*%
D19*
%TO.P,J10,1,Pin_1*%
%TO.N,GND*%
X139000000Y-128000000D03*
D16*
%TO.P,J10,2,Pin_2*%
%TO.N,/5V*%
X144000000Y-128000000D03*
%TO.P,J10,3,Pin_3*%
%TO.N,/D12*%
X149000000Y-128000000D03*
%TO.P,J10,4,Pin_4*%
%TO.N,/D11*%
X154000000Y-128000000D03*
%TO.P,J10,5,Pin_5*%
%TO.N,/D13*%
X159000000Y-128000000D03*
%TO.P,J10,6,Pin_6*%
%TO.N,/CS*%
X164000000Y-128000000D03*
%TD*%
D11*
%TO.P,J4,1,Pin_1*%
%TO.N,/TX1*%
X144000000Y-71000000D03*
D12*
%TO.P,J4,2,Pin_2*%
%TO.N,/GPIO17(TX2)*%
X144000000Y-73540000D03*
%TO.P,J4,3,Pin_3*%
%TO.N,/<NO NET>*%
X144000000Y-76080000D03*
%TO.P,J4,4,Pin_4*%
%TO.N,GND*%
X144000000Y-78620000D03*
%TO.P,J4,5,Pin_5*%
%TO.N,/D2*%
X144000000Y-81160000D03*
%TO.P,J4,6,Pin_6*%
%TO.N,/D3*%
X144000000Y-83700000D03*
%TO.P,J4,7,Pin_7*%
%TO.N,/D4*%
X144000000Y-86240000D03*
%TO.P,J4,8,Pin_8*%
%TO.N,/D5*%
X144000000Y-88780000D03*
%TO.P,J4,9,Pin_9*%
%TO.N,/D6*%
X144000000Y-91320000D03*
%TO.P,J4,10,Pin_10*%
%TO.N,/D7*%
X144000000Y-93860000D03*
%TO.P,J4,11,Pin_11*%
%TO.N,/D8*%
X144000000Y-96400000D03*
%TO.P,J4,12,Pin_12*%
%TO.N,/D9*%
X144000000Y-98940000D03*
%TO.P,J4,13,Pin_13*%
%TO.N,/CS*%
X144000000Y-101480000D03*
%TO.P,J4,14,Pin_14*%
%TO.N,/D11*%
X144000000Y-104020000D03*
%TO.P,J4,15,Pin_15*%
%TO.N,/D12*%
X144000000Y-106560000D03*
%TD*%
D19*
%TO.P,D1,1,K*%
%TO.N,/Drain*%
X133000000Y-38500000D03*
D16*
%TO.P,D1,2,A*%
%TO.N,/12V*%
X138000000Y-38500000D03*
%TD*%
D10*
%TO.P,R3,1*%
%TO.N,/Gate*%
X113840000Y-66500000D03*
%TO.P,R3,2*%
%TO.N,/GPIO4*%
X124000000Y-66500000D03*
%TD*%
D19*
%TO.P,J5,1,Pin_1*%
%TO.N,/12V*%
X119000000Y-55000000D03*
D16*
%TO.P,J5,2,Pin_2*%
%TO.N,GND*%
X124000000Y-55000000D03*
%TD*%
D10*
%TO.P,R5,1*%
%TO.N,/GPIO34*%
X70000000Y-121160000D03*
%TO.P,R5,2*%
%TO.N,/Signal*%
X70000000Y-111000000D03*
%TD*%
D19*
%TO.P,J12,1,Pin_1*%
%TO.N,/5V*%
X92750000Y-55000000D03*
D16*
%TO.P,J12,2,Pin_2*%
%TO.N,GND*%
X97750000Y-55000000D03*
%TD*%
D10*
%TO.P,R1,1*%
%TO.N,/GPIO16(RX2)*%
X127840000Y-74500000D03*
%TO.P,R1,2*%
%TO.N,/TX1*%
X138000000Y-74500000D03*
%TD*%
D20*
%TO.N,/3V3*%
X80857823Y-106642176D02*
X81357823Y-107142176D01*
X105857823Y-108642176D02*
X105860000Y-106560000D01*
X65000000Y-58500000D02*
X80857823Y-74642176D01*
X81357823Y-107142176D02*
X81357823Y-107642176D01*
X85920000Y-128500000D02*
X105857823Y-108642176D01*
X80857823Y-74642176D02*
X80857823Y-106642176D01*
X81857823Y-108142176D02*
X105857823Y-108142176D01*
X81357823Y-107642176D02*
X81857823Y-108142176D01*
D21*
%TO.N,/GPIO26*%
X63357823Y-56642176D02*
X66357823Y-56642176D01*
X79357823Y-69642176D02*
X84357823Y-69642176D01*
X83357823Y-91142176D02*
X83000000Y-91320000D01*
X84357823Y-69642176D02*
X84357823Y-90142176D01*
X66500000Y-81500000D02*
X66357823Y-78642176D01*
X84357823Y-90142176D02*
X83357823Y-91142176D01*
X62857823Y-57642176D02*
X63357823Y-57142176D01*
X66357823Y-56642176D02*
X79357823Y-69642176D01*
X66357823Y-78642176D02*
X62857823Y-75142176D01*
X62857823Y-75142176D02*
X62857823Y-57642176D01*
X63357823Y-57142176D02*
X63357823Y-56642176D01*
%TO.N,Net-(BZ1-+)*%
X56340000Y-81500000D02*
X54857823Y-83142176D01*
X54857823Y-83142176D02*
X54700000Y-96000000D01*
D20*
%TO.N,/5V*%
X158500000Y-55000000D02*
X156857823Y-55142176D01*
X83000000Y-106560000D02*
X92857823Y-96642176D01*
X92857823Y-96642176D02*
X92750000Y-55000000D01*
X144000000Y-128000000D02*
X157857823Y-114142176D01*
X158857823Y-78642176D02*
X158857823Y-78142176D01*
X159240000Y-78620000D02*
X157857823Y-77142176D01*
X156857823Y-55142176D02*
X154857823Y-57142176D01*
X157857823Y-79642176D02*
X158857823Y-78642176D01*
X154857823Y-57142176D02*
X92857823Y-57142176D01*
X157857823Y-77142176D02*
X157857823Y-55142176D01*
X157857823Y-114142176D02*
X157857823Y-79642176D01*
%TD*%
M02*
