%TF.GenerationSoftware,KiCad,Pcbnew,9.0.5*%
%TF.CreationDate,2026-07-02T22:36:49-04:00*%
%TF.ProjectId,Electric Skateboard,456c6563-7472-4696-9320-536b61746562,rev?*%
%TF.SameCoordinates,Original*%
%TF.FileFunction,Copper,L1,Top*%
%TF.FilePolarity,Positive*%
%FSLAX46Y46*%
G04 Gerber Fmt 4.6, Leading zero omitted, Abs format (unit mm)*
G04 Created by KiCad (PCBNEW 9.0.5) date 2026-07-02 22:36:49*
%MOMM*%
%LPD*%
G01*
G04 APERTURE LIST*
G04 Aperture macros list*
%AMRoundRect*
0 Rectangle with rounded corners*
0 $1 Rounding radius*
0 $2 $3 $4 $5 $6 $7 $8 $9 X,Y pos of 4 corners*
0 Add a 4 corners polygon primitive as box body*
4,1,4,$2,$3,$4,$5,$6,$7,$8,$9,$2,$3,0*
0 Add four circle primitives for the rounded corners*
1,1,$1+$1,$2,$3*
1,1,$1+$1,$4,$5*
1,1,$1+$1,$6,$7*
1,1,$1+$1,$8,$9*
0 Add four rect primitives between the rounded corners*
20,1,$1+$1,$2,$3,$4,$5,0*
20,1,$1+$1,$4,$5,$6,$7,0*
20,1,$1+$1,$6,$7,$8,$9,0*
20,1,$1+$1,$8,$9,$2,$3,0*%
G04 Aperture macros list end*
%TA.AperFunction,ComponentPad*%
%ADD10C,1.600000*%
%TD*%
%TA.AperFunction,ComponentPad*%
%ADD11R,1.700000X1.700000*%
%TD*%
%TA.AperFunction,ComponentPad*%
%ADD12C,1.700000*%
%TD*%
%TA.AperFunction,ComponentPad*%
%ADD13R,2.000000X2.000000*%
%TD*%
%TA.AperFunction,ComponentPad*%
%ADD14C,2.000000*%
%TD*%
%TA.AperFunction,ComponentPad*%
%ADD15RoundRect,0.250001X1.149999X-1.149999X1.149999X1.149999X-1.149999X1.149999X-1.149999X-1.149999X0*%
%TD*%
%TA.AperFunction,ComponentPad*%
%ADD16C,2.800000*%
%TD*%
%TA.AperFunction,ComponentPad*%
%ADD17R,1.905000X2.000000*%
%TD*%
%TA.AperFunction,ComponentPad*%
%ADD18O,1.905000X2.000000*%
%TD*%
%TA.AperFunction,ComponentPad*%
%ADD19RoundRect,0.250001X-1.149999X-1.149999X1.149999X-1.149999X1.149999X1.149999X-1.149999X1.149999X0*%
%TD*%
%TA.AperFunction,Conductor*%
%ADD20C,0.200000*%
%TD*%
G04 APERTURE END LIST*
D10*
%TO.P,R6,2*%
%TO.N,GND*%
X95000000Y-64340000D03*
%TO.P,R6,1*%
%TO.N,/GPIO34*%
X95000000Y-74500000D03*
%TD*%
D11*
%TO.P,J3,1,Pin_1*%
%TO.N,unconnected-(J3-Pin_1-Pad1)*%
X159240000Y-71000000D03*
D12*
%TO.P,J3,2,Pin_2*%
%TO.N,GND*%
X159240000Y-73540000D03*
%TO.P,J3,3,Pin_3*%
%TO.N,/<NO NET>*%
X159240000Y-76080000D03*
%TO.P,J3,4,Pin_4*%
%TO.N,/5V*%
X159240000Y-78620000D03*
%TO.P,J3,5,Pin_5*%
%TO.N,/A7*%
X159240000Y-81160000D03*
%TO.P,J3,6,Pin_6*%
%TO.N,/A6*%
X159240000Y-83700000D03*
%TO.P,J3,7,Pin_7*%
%TO.N,/A5*%
X159240000Y-86240000D03*
%TO.P,J3,8,Pin_8*%
%TO.N,/A4*%
X159240000Y-88780000D03*
%TO.P,J3,9,Pin_9*%
%TO.N,/A3*%
X159240000Y-91320000D03*
%TO.P,J3,10,Pin_10*%
%TO.N,/A2*%
X159240000Y-93860000D03*
%TO.P,J3,11,Pin_11*%
%TO.N,/A1*%
X159240000Y-96400000D03*
%TO.P,J3,12,Pin_12*%
%TO.N,/A0*%
X159240000Y-98940000D03*
%TO.P,J3,13,Pin_13*%
%TO.N,/REF*%
X159240000Y-101480000D03*
%TO.P,J3,14,Pin_14*%
%TO.N,unconnected-(J3-Pin_14-Pad14)*%
X159240000Y-104020000D03*
%TO.P,J3,15,Pin_15*%
%TO.N,/D13*%
X159240000Y-106560000D03*
%TD*%
D13*
%TO.P,BZ1,1,+*%
%TO.N,Net-(BZ1-+)*%
X54700000Y-96000000D03*
D14*
%TO.P,BZ1,2,-*%
%TO.N,GND*%
X62300000Y-96000000D03*
%TD*%
D15*
%TO.P,J7,1,Pin_1*%
%TO.N,GND*%
X57000000Y-138500000D03*
D16*
%TO.P,J7,2,Pin_2*%
%TO.N,/5V (iso)+*%
X57000000Y-133500000D03*
%TO.P,J7,3,Pin_3*%
%TO.N,/GPIO25*%
X57000000Y-128500000D03*
%TD*%
D10*
%TO.P,R4,1*%
%TO.N,/Gate*%
X113840000Y-74000000D03*
%TO.P,R4,2*%
%TO.N,GND*%
X124000000Y-74000000D03*
%TD*%
D17*
%TO.P,Q1,1,G*%
%TO.N,/Gate*%
X130960000Y-66450000D03*
D18*
%TO.P,Q1,2,D*%
%TO.N,/Drain*%
X133500000Y-66450000D03*
%TO.P,Q1,3,S*%
%TO.N,GND*%
X136040000Y-66450000D03*
%TD*%
D15*
%TO.P,J9,1,Pin_1*%
%TO.N,/GPIO21*%
X65000000Y-68500000D03*
D16*
%TO.P,J9,2,Pin_2*%
%TO.N,/GPIO22*%
X65000000Y-63500000D03*
%TO.P,J9,3,Pin_3*%
%TO.N,/3V3*%
X65000000Y-58500000D03*
%TO.P,J9,4,Pin_4*%
%TO.N,GND*%
X65000000Y-53500000D03*
%TD*%
D19*
%TO.P,J11,1,Pin_1*%
%TO.N,GND*%
X143500000Y-55000000D03*
D16*
%TO.P,J11,2,Pin_2*%
%TO.N,/D4*%
X148500000Y-55000000D03*
%TO.P,J11,3,Pin_3*%
%TO.N,/D3*%
X153500000Y-55000000D03*
%TO.P,J11,4,Pin_4*%
%TO.N,/5V*%
X158500000Y-55000000D03*
%TD*%
D11*
%TO.P,J8,1,Pin_1*%
%TO.N,/3V3*%
X85920000Y-128500000D03*
D12*
%TO.P,J8,2,Pin_2*%
%TO.N,GND*%
X88460000Y-128500000D03*
%TO.P,J8,3,Pin_3*%
%TO.N,/GPIO22*%
X91000000Y-128500000D03*
%TO.P,J8,4,Pin_4*%
%TO.N,/GPIO21*%
X93540000Y-128500000D03*
%TO.P,J8,5,Pin_5*%
%TO.N,unconnected-(J8-Pin_5-Pad5)*%
X96080000Y-128500000D03*
%TO.P,J8,6,Pin_6*%
%TO.N,unconnected-(J8-Pin_6-Pad6)*%
X98620000Y-128500000D03*
%TO.P,J8,7,Pin_7*%
%TO.N,unconnected-(J8-Pin_7-Pad7)*%
X101160000Y-128500000D03*
%TO.P,J8,8,Pin_8*%
%TO.N,unconnected-(J8-Pin_8-Pad8)*%
X103700000Y-128500000D03*
%TD*%
D10*
%TO.P,R7,1*%
%TO.N,Net-(BZ1-+)*%
X56340000Y-81500000D03*
%TO.P,R7,2*%
%TO.N,/GPIO26*%
X66500000Y-81500000D03*
%TD*%
D11*
%TO.P,J2,1,Pin_1*%
%TO.N,/EN*%
X83000000Y-71000000D03*
D12*
%TO.P,J2,2,Pin_2*%
%TO.N,/GPIO36(VP)*%
X83000000Y-73540000D03*
%TO.P,J2,3,Pin_3*%
%TO.N,/GPIO39(VN)*%
X83000000Y-76080000D03*
%TO.P,J2,4,Pin_4*%
%TO.N,/GPIO34*%
X83000000Y-78620000D03*
%TO.P,J2,5,Pin_5*%
%TO.N,/GPIO35*%
X83000000Y-81160000D03*
%TO.P,J2,6,Pin_6*%
%TO.N,/GPIO32*%
X83000000Y-83700000D03*
%TO.P,J2,7,Pin_7*%
%TO.N,/GPIO33*%
X83000000Y-86240000D03*
%TO.P,J2,8,Pin_8*%
%TO.N,/GPIO25*%
X83000000Y-88780000D03*
%TO.P,J2,9,Pin_9*%
%TO.N,/GPIO26*%
X83000000Y-91320000D03*
%TO.P,J2,10,Pin_10*%
%TO.N,/GPIO27*%
X83000000Y-93860000D03*
%TO.P,J2,11,Pin_11*%
%TO.N,/GPIO14*%
X83000000Y-96400000D03*
%TO.P,J2,12,Pin_12*%
%TO.N,/GPIO12*%
X83000000Y-98940000D03*
%TO.P,J2,13,Pin_13*%
%TO.N,/GPIO13*%
X83000000Y-101480000D03*
%TO.P,J2,14,Pin_14*%
%TO.N,GND*%
X83000000Y-104020000D03*
%TO.P,J2,15,Pin_15*%
%TO.N,/5V*%
X83000000Y-106560000D03*
%TD*%
D10*
%TO.P,R2,1*%
%TO.N,/GPIO16(RX2)*%
X128000000Y-81000000D03*
%TO.P,R2,2*%
%TO.N,GND*%
X138160000Y-81000000D03*
%TD*%
D15*
%TO.P,J6,1,Pin_1*%
%TO.N,/Signal*%
X57000000Y-119500000D03*
D16*
%TO.P,J6,2,Pin_2*%
%TO.N,GND*%
X57000000Y-114500000D03*
%TO.P,J6,3,Pin_3*%
%TO.N,/5V (iso)+*%
X57000000Y-109500000D03*
%TD*%
D11*
%TO.P,J1,1,Pin_1*%
%TO.N,/<NO NET>*%
X105860000Y-71000000D03*
D12*
%TO.P,J1,2,Pin_2*%
%TO.N,/GPIO22*%
X105860000Y-73540000D03*
%TO.P,J1,3,Pin_3*%
%TO.N,/GPIO1(TX0)*%
X105860000Y-76080000D03*
%TO.P,J1,4,Pin_4*%
%TO.N,/GPIO3(RX0)*%
X105860000Y-78620000D03*
%TO.P,J1,5,Pin_5*%
%TO.N,/GPIO21*%
X105860000Y-81160000D03*
%TO.P,J1,6,Pin_6*%
%TO.N,/GPIO19*%
X105860000Y-83700000D03*
%TO.P,J1,7,Pin_7*%
%TO.N,/GPIO18*%
X105860000Y-86240000D03*
%TO.P,J1,8,Pin_8*%
%TO.N,/GPIO5*%
X105860000Y-88780000D03*
%TO.P,J1,9,Pin_9*%
%TO.N,/GPIO17(TX2)*%
X105860000Y-91320000D03*
%TO.P,J1,10,Pin_10*%
%TO.N,/GPIO16(RX2)*%
X105860000Y-93860000D03*
%TO.P,J1,11,Pin_11*%
%TO.N,/GPIO4*%
X105860000Y-96400000D03*
%TO.P,J1,12,Pin_12*%
%TO.N,/GPIO2*%
X105860000Y-98940000D03*
%TO.P,J1,13,Pin_13*%
%TO.N,/GPIO15*%
X105860000Y-101480000D03*
%TO.P,J1,14,Pin_14*%
%TO.N,GND*%
X105860000Y-104020000D03*
%TO.P,J1,15,Pin_15*%
%TO.N,/3V3*%
X105860000Y-106560000D03*
%TD*%
D19*
%TO.P,J10,1,Pin_1*%
%TO.N,GND*%
X139000000Y-128000000D03*
D16*
%TO.P,J10,2,Pin_2*%
%TO.N,/5V*%
X144000000Y-128000000D03*
%TO.P,J10,3,Pin_3*%
%TO.N,/D12*%
X149000000Y-128000000D03*
%TO.P,J10,4,Pin_4*%
%TO.N,/D11*%
X154000000Y-128000000D03*
%TO.P,J10,5,Pin_5*%
%TO.N,/D13*%
X159000000Y-128000000D03*
%TO.P,J10,6,Pin_6*%
%TO.N,/CS*%
X164000000Y-128000000D03*
%TD*%
D11*
%TO.P,J4,1,Pin_1*%
%TO.N,/TX1*%
X144000000Y-71000000D03*
D12*
%TO.P,J4,2,Pin_2*%
%TO.N,/GPIO17(TX2)*%
X144000000Y-73540000D03*
%TO.P,J4,3,Pin_3*%
%TO.N,/<NO NET>*%
X144000000Y-76080000D03*
%TO.P,J4,4,Pin_4*%
%TO.N,GND*%
X144000000Y-78620000D03*
%TO.P,J4,5,Pin_5*%
%TO.N,/D2*%
X144000000Y-81160000D03*
%TO.P,J4,6,Pin_6*%
%TO.N,/D3*%
X144000000Y-83700000D03*
%TO.P,J4,7,Pin_7*%
%TO.N,/D4*%
X144000000Y-86240000D03*
%TO.P,J4,8,Pin_8*%
%TO.N,/D5*%
X144000000Y-88780000D03*
%TO.P,J4,9,Pin_9*%
%TO.N,/D6*%
X144000000Y-91320000D03*
%TO.P,J4,10,Pin_10*%
%TO.N,/D7*%
X144000000Y-93860000D03*
%TO.P,J4,11,Pin_11*%
%TO.N,/D8*%
X144000000Y-96400000D03*
%TO.P,J4,12,Pin_12*%
%TO.N,/D9*%
X144000000Y-98940000D03*
%TO.P,J4,13,Pin_13*%
%TO.N,/CS*%
X144000000Y-101480000D03*
%TO.P,J4,14,Pin_14*%
%TO.N,/D11*%
X144000000Y-104020000D03*
%TO.P,J4,15,Pin_15*%
%TO.N,/D12*%
X144000000Y-106560000D03*
%TD*%
D19*
%TO.P,D1,1,K*%
%TO.N,/Drain*%
X133000000Y-38500000D03*
D16*
%TO.P,D1,2,A*%
%TO.N,/12V*%
X138000000Y-38500000D03*
%TD*%
D10*
%TO.P,R3,1*%
%TO.N,/Gate*%
X113840000Y-66500000D03*
%TO.P,R3,2*%
%TO.N,/GPIO4*%
X124000000Y-66500000D03*
%TD*%
D19*
%TO.P,J5,1,Pin_1*%
%TO.N,/12V*%
X119000000Y-55000000D03*
D16*
%TO.P,J5,2,Pin_2*%
%TO.N,GND*%
X124000000Y-55000000D03*
%TD*%
D10*
%TO.P,R5,1*%
%TO.N,/GPIO34*%
X70000000Y-121160000D03*
%TO.P,R5,2*%
%TO.N,/Signal*%
X70000000Y-111000000D03*
%TD*%
D19*
%TO.P,J12,1,Pin_1*%
%TO.N,/5V*%
X92750000Y-55000000D03*
D16*
%TO.P,J12,2,Pin_2*%
%TO.N,GND*%
X97750000Y-55000000D03*
%TD*%
D10*
%TO.P,R1,1*%
%TO.N,/GPIO16(RX2)*%
X127840000Y-74500000D03*
%TO.P,R1,2*%
%TO.N,/TX1*%
X138000000Y-74500000D03*
%TD*%
D20*
%TO.N,GND*%
X111000000Y-133000000D02*
X108500000Y-135500000D01*
X83476760Y-100329000D02*
X87071000Y-103923240D01*
X87071000Y-129651000D02*
X84769000Y-129651000D01*
X142849000Y-86716760D02*
X142849000Y-83223240D01*
X147500000Y-81000000D02*
X147500000Y-78500000D01*
X144476760Y-100329000D02*
X143523240Y-100329000D01*
X115330000Y-103830000D02*
X138160000Y-81000000D01*
X143523240Y-72389000D02*
X144476760Y-72389000D01*
X97750000Y-55000000D02*
X97750000Y-61590000D01*
X122299000Y-53299000D02*
X117614840Y-53299000D01*
X135085240Y-85197480D02*
X135193720Y-85197480D01*
X145151000Y-101003240D02*
X144476760Y-100329000D01*
X88460000Y-128500000D02*
X81500000Y-135460000D01*
X57000000Y-114500000D02*
X66629000Y-104871000D01*
X143523240Y-100329000D02*
X140387760Y-97193520D01*
X104471000Y-105409000D02*
X105860000Y-104020000D01*
X147380000Y-78620000D02*
X144000000Y-78620000D01*
X66629000Y-100329000D02*
X83476760Y-100329000D01*
X84769000Y-129651000D02*
X81000000Y-125882000D01*
X81000000Y-125882000D02*
X81000000Y-106020000D01*
X145049000Y-82549000D02*
X145500000Y-83000000D01*
X62300000Y-96000000D02*
X66629000Y-100329000D01*
X143500000Y-58990000D02*
X143500000Y-55000000D01*
X139000000Y-128000000D02*
X145151000Y-121849000D01*
X117299000Y-53614840D02*
X117299000Y-56799000D01*
X132980783Y-67751000D02*
X134739000Y-67751000D01*
X140387760Y-90500000D02*
X140401000Y-90513240D01*
X125498000Y-64998000D02*
X132062500Y-64998000D01*
X81000000Y-106020000D02*
X83000000Y-104020000D01*
X140311240Y-75601000D02*
X143523240Y-72389000D01*
X134739000Y-72796050D02*
X137543950Y-75601000D01*
X130249000Y-67751000D02*
X134739000Y-67751000D01*
X140401000Y-90404760D02*
X140401000Y-90513240D01*
X54898000Y-136398000D02*
X54898000Y-109196422D01*
X132213500Y-65149000D02*
X132213500Y-66983717D01*
X144476760Y-72389000D02*
X145151000Y-73063240D01*
X124000000Y-74000000D02*
X130249000Y-67751000D01*
X104500000Y-105409000D02*
X104500000Y-120500000D01*
X97750000Y-61590000D02*
X95000000Y-64340000D01*
X54898000Y-109196422D02*
X56295422Y-107799000D01*
X81500000Y-135500000D02*
X81000000Y-135500000D01*
X87071000Y-103923240D02*
X87071000Y-129651000D01*
X58701000Y-108795422D02*
X58701000Y-112799000D01*
X117614840Y-53299000D02*
X117299000Y-53614840D01*
X81500000Y-135460000D02*
X81500000Y-135500000D01*
X57704578Y-107799000D02*
X58701000Y-108795422D01*
X141620000Y-81000000D02*
X144000000Y-78620000D01*
X104500000Y-120500000D02*
X111000000Y-127000000D01*
X140387760Y-97193520D02*
X140387760Y-90500000D01*
X136040000Y-66450000D02*
X143500000Y-58990000D01*
X105860000Y-104020000D02*
X115140000Y-104020000D01*
X134739000Y-67751000D02*
X134739000Y-72796050D01*
X132213500Y-66983717D02*
X132980783Y-67751000D01*
X65000000Y-53500000D02*
X84160000Y-53500000D01*
X143523240Y-87391000D02*
X142849000Y-86716760D01*
X66629000Y-104871000D02*
X66629000Y-100329000D01*
X104500000Y-105409000D02*
X104471000Y-105409000D01*
X58701000Y-112799000D02*
X57000000Y-114500000D01*
X84160000Y-53500000D02*
X95000000Y-64340000D01*
X114765240Y-105409000D02*
X135085240Y-85089000D01*
X145151000Y-121849000D02*
X145151000Y-101003240D01*
X115330000Y-104579000D02*
X114500000Y-105409000D01*
X145500000Y-83000000D02*
X147500000Y-81000000D01*
X124000000Y-55000000D02*
X122299000Y-53299000D01*
X134739000Y-67751000D02*
X136040000Y-66450000D01*
X108500000Y-135500000D02*
X81500000Y-135500000D01*
X111000000Y-127000000D02*
X111000000Y-133000000D01*
X137543950Y-75601000D02*
X140311240Y-75601000D01*
X115140000Y-104020000D02*
X115330000Y-103830000D01*
X122299000Y-53299000D02*
X99451000Y-53299000D01*
X135193720Y-85197480D02*
X140401000Y-90404760D01*
X145151000Y-77469000D02*
X144000000Y-78620000D01*
X135085240Y-85089000D02*
X135085240Y-85197480D01*
X159240000Y-73540000D02*
X145389000Y-87391000D01*
X99451000Y-53299000D02*
X97750000Y-55000000D01*
X56295422Y-107799000D02*
X57704578Y-107799000D01*
X115330000Y-103830000D02*
X115330000Y-104579000D01*
X147500000Y-78500000D02*
X147380000Y-78620000D01*
X114500000Y-105409000D02*
X114765240Y-105409000D01*
X57000000Y-138500000D02*
X54898000Y-136398000D01*
X142849000Y-83223240D02*
X143523240Y-82549000D01*
X114500000Y-105409000D02*
X104500000Y-105409000D01*
X143523240Y-82549000D02*
X145049000Y-82549000D01*
X145151000Y-73063240D02*
X145151000Y-77469000D01*
X138160000Y-81000000D02*
X141620000Y-81000000D01*
X117299000Y-56799000D02*
X125498000Y-64998000D01*
X132062500Y-64998000D02*
X132213500Y-65149000D01*
X81000000Y-135500000D02*
X81000000Y-125882000D01*
X145389000Y-87391000D02*
X143523240Y-87391000D01*
%TO.N,/Drain*%
X139701000Y-37795422D02*
X139701000Y-60249000D01*
X138704578Y-36799000D02*
X139701000Y-37795422D01*
X134701000Y-36799000D02*
X138704578Y-36799000D01*
X139701000Y-60249000D02*
X133500000Y-66450000D01*
X133000000Y-38500000D02*
X134701000Y-36799000D01*
%TO.N,/12V*%
X124704578Y-56701000D02*
X138000000Y-43405578D01*
X138000000Y-43405578D02*
X138000000Y-38500000D01*
X120701000Y-56701000D02*
X124704578Y-56701000D01*
X119000000Y-55000000D02*
X120701000Y-56701000D01*
%TO.N,/GPIO17(TX2)*%
X144000000Y-73540000D02*
X117449000Y-100091000D01*
X104308000Y-92872000D02*
X105860000Y-91320000D01*
X105383240Y-100091000D02*
X104308000Y-99015760D01*
X117449000Y-100091000D02*
X105383240Y-100091000D01*
X104308000Y-99015760D02*
X104308000Y-92872000D01*
%TO.N,/GPIO21*%
X107011000Y-80009000D02*
X107011000Y-69849000D01*
X93540000Y-128500000D02*
X93540000Y-93480000D01*
X105860000Y-81160000D02*
X107011000Y-80009000D01*
X64295422Y-61799000D02*
X63299000Y-62795422D01*
X73754578Y-69849000D02*
X65704578Y-61799000D01*
X65704578Y-61799000D02*
X64295422Y-61799000D01*
X93540000Y-93480000D02*
X105860000Y-81160000D01*
X63299000Y-62795422D02*
X63299000Y-66799000D01*
X65000000Y-68500000D02*
X63299000Y-66799000D01*
X107011000Y-69849000D02*
X73754578Y-69849000D01*
%TO.N,/GPIO4*%
X124000000Y-66500000D02*
X122899000Y-67601000D01*
X122899000Y-79361000D02*
X105860000Y-96400000D01*
X122899000Y-67601000D02*
X122899000Y-79361000D01*
%TO.N,/GPIO16(RX2)*%
X127840000Y-74500000D02*
X127840000Y-76047760D01*
X106336760Y-97551000D02*
X105383240Y-97551000D01*
X104709000Y-95011000D02*
X105860000Y-93860000D01*
X105383240Y-97551000D02*
X104709000Y-96876760D01*
X127840000Y-74500000D02*
X127840000Y-80840000D01*
X127840000Y-76047760D02*
X106336760Y-97551000D01*
X127840000Y-80840000D02*
X128000000Y-81000000D01*
X104709000Y-96876760D02*
X104709000Y-95011000D01*
%TO.N,/GPIO22*%
X73651000Y-72151000D02*
X104471000Y-72151000D01*
X105860000Y-73540000D02*
X91000000Y-88400000D01*
X65000000Y-63500000D02*
X73651000Y-72151000D01*
X91000000Y-88400000D02*
X91000000Y-128500000D01*
X104471000Y-72151000D02*
X105860000Y-73540000D01*
%TO.N,/5V (iso)+*%
X55299000Y-131799000D02*
X57000000Y-133500000D01*
X55299000Y-111201000D02*
X55299000Y-131799000D01*
X57000000Y-109500000D02*
X55299000Y-111201000D01*
%TO.N,/GPIO34*%
X70000000Y-121160000D02*
X70000000Y-129153260D01*
X95000000Y-74500000D02*
X87120000Y-74500000D01*
X70000000Y-129153260D02*
X58551260Y-140602000D01*
X54096000Y-101797008D02*
X77273008Y-78620000D01*
X55448740Y-140602000D02*
X54096000Y-139249260D01*
X87120000Y-74500000D02*
X83000000Y-78620000D01*
X54096000Y-139249260D02*
X54096000Y-101797008D01*
X77273008Y-78620000D02*
X83000000Y-78620000D01*
X58551260Y-140602000D02*
X55448740Y-140602000D01*
%TO.N,/GPIO25*%
X54497000Y-139083160D02*
X54497000Y-101963108D01*
X58701000Y-130201000D02*
X58701000Y-139885160D01*
X58701000Y-139885160D02*
X58385160Y-140201000D01*
X58385160Y-140201000D02*
X55614840Y-140201000D01*
X55614840Y-140201000D02*
X54497000Y-139083160D01*
X67680108Y-88780000D02*
X83000000Y-88780000D01*
X57000000Y-128500000D02*
X58701000Y-130201000D01*
X54497000Y-101963108D02*
X67680108Y-88780000D01*
%TO.N,/D13*%
X159000000Y-128000000D02*
X159000000Y-106800000D01*
X159000000Y-106800000D02*
X159240000Y-106560000D01*
%TO.N,/D11*%
X151898000Y-130102000D02*
X137448740Y-130102000D01*
X136898000Y-129551260D02*
X136898000Y-126448740D01*
X137448740Y-130102000D02*
X136898000Y-129551260D01*
X143500000Y-122000000D02*
X142849000Y-121349000D01*
X136898000Y-126448740D02*
X137846740Y-125500000D01*
X140000000Y-125500000D02*
X143500000Y-122000000D01*
X137846740Y-125500000D02*
X140000000Y-125500000D01*
X142849000Y-121349000D02*
X142849000Y-105171000D01*
X142849000Y-105171000D02*
X144000000Y-104020000D01*
X154000000Y-128000000D02*
X151898000Y-130102000D01*
%TO.N,/D12*%
X149000000Y-128000000D02*
X147299000Y-129701000D01*
X144000000Y-121000000D02*
X144000000Y-106560000D01*
X137913840Y-126000000D02*
X140432900Y-126000000D01*
X140432900Y-126000000D02*
X144716450Y-121716450D01*
X144716450Y-121716450D02*
X144000000Y-121000000D01*
X137299000Y-126614840D02*
X137913840Y-126000000D01*
X147299000Y-129701000D02*
X137614840Y-129701000D01*
X137299000Y-129385160D02*
X137299000Y-126614840D01*
X137614840Y-129701000D02*
X137299000Y-129385160D01*
%TO.N,/CS*%
X137282640Y-130503000D02*
X136497000Y-129717360D01*
X136497000Y-129717360D02*
X136497000Y-126282640D01*
X164000000Y-128000000D02*
X161497000Y-130503000D01*
X136497000Y-126282640D02*
X142448000Y-120331640D01*
X142448000Y-103032000D02*
X144000000Y-101480000D01*
X142448000Y-120331640D02*
X142448000Y-103032000D01*
X161497000Y-130503000D02*
X137282640Y-130503000D01*
%TO.N,/TX1*%
X144000000Y-71000000D02*
X141500000Y-71000000D01*
X141500000Y-71000000D02*
X138000000Y-74500000D01*
%TO.N,/D3*%
X144700000Y-83700000D02*
X144000000Y-83700000D01*
X145336450Y-84336450D02*
X144700000Y-83700000D01*
X148000000Y-81672900D02*
X145336450Y-84336450D01*
X153500000Y-55000000D02*
X151799000Y-53299000D01*
X146799000Y-54295422D02*
X146799000Y-56799000D01*
X148000000Y-58000000D02*
X148000000Y-81672900D01*
X146799000Y-56799000D02*
X148000000Y-58000000D01*
X151799000Y-53299000D02*
X147795422Y-53299000D01*
X147795422Y-53299000D02*
X146799000Y-54295422D01*
%TO.N,/D4*%
X148500000Y-81740000D02*
X144000000Y-86240000D01*
X148500000Y-55000000D02*
X148500000Y-81740000D01*
%TO.N,/Signal*%
X70000000Y-111000000D02*
X65500000Y-111000000D01*
X65500000Y-111000000D02*
X57000000Y-119500000D01*
%TO.N,/Gate*%
X113840000Y-66500000D02*
X113840000Y-74000000D01*
X114941000Y-65399000D02*
X113840000Y-66500000D01*
X130960000Y-66450000D02*
X129909000Y-65399000D01*
X129909000Y-65399000D02*
X114941000Y-65399000D01*
%TD*%
M02*
