M48
; DRILL file {KiCad 9.0.5} date 2026-07-02T18:11:47-0400
; FORMAT={-:-/ absolute / metric / decimal}
; #@! TF.CreationDate,2026-07-02T18:11:47-04:00
; #@! TF.GenerationSoftware,Kicad,Pcbnew,9.0.5
; #@! TF.FileFunction,Plated,1,2,PTH
FMAT,2
METRIC
; #@! TA.AperFunction,Plated,PTH,ComponentDrill
T1C0.800
; #@! TA.AperFunction,Plated,PTH,ComponentDrill
T2C1.000
; #@! TA.AperFunction,Plated,PTH,ComponentDrill
T3C1.100
; #@! TA.AperFunction,Plated,PTH,ComponentDrill
T4C1.300
%
G90
G05
T1
X71.0Y-110.0
X71.0Y-120.16
X96.0Y-63.34
X96.0Y-73.5
X114.84Y-65.5
X114.84Y-73.0
X125.0Y-65.5
X125.0Y-73.0
X128.84Y-73.5
X129.0Y-80.0
X139.0Y-73.5
X139.16Y-80.0
T2
X55.7Y-95.0
X63.3Y-95.0
X84.0Y-70.0
X84.0Y-72.54
X84.0Y-75.08
X84.0Y-77.62
X84.0Y-80.16
X84.0Y-82.7
X84.0Y-85.24
X84.0Y-87.78
X84.0Y-90.32
X84.0Y-92.86
X84.0Y-95.4
X84.0Y-97.94
X84.0Y-100.48
X84.0Y-103.02
X84.0Y-105.56
X86.92Y-127.5
X89.46Y-127.5
X92.0Y-127.5
X94.54Y-127.5
X97.08Y-127.5
X99.62Y-127.5
X102.16Y-127.5
X104.7Y-127.5
X106.86Y-70.0
X106.86Y-72.54
X106.86Y-75.08
X106.86Y-77.62
X106.86Y-80.16
X106.86Y-82.7
X106.86Y-85.24
X106.86Y-87.78
X106.86Y-90.32
X106.86Y-92.86
X106.86Y-95.4
X106.86Y-97.94
X106.86Y-100.48
X106.86Y-103.02
X106.86Y-105.56
X145.0Y-70.0
X145.0Y-72.54
X145.0Y-75.08
X145.0Y-77.62
X145.0Y-80.16
X145.0Y-82.7
X145.0Y-85.24
X145.0Y-87.78
X145.0Y-90.32
X145.0Y-92.86
X145.0Y-95.4
X145.0Y-97.94
X145.0Y-100.48
X145.0Y-103.02
X145.0Y-105.56
X160.24Y-70.0
X160.24Y-72.54
X160.24Y-75.08
X160.24Y-77.62
X160.24Y-80.16
X160.24Y-82.7
X160.24Y-85.24
X160.24Y-87.78
X160.24Y-90.32
X160.24Y-92.86
X160.24Y-95.4
X160.24Y-97.94
X160.24Y-100.48
X160.24Y-103.02
X160.24Y-105.56
T3
X131.96Y-65.45
X134.5Y-65.45
X137.04Y-65.45
T4
X58.0Y-108.5
X58.0Y-113.5
X58.0Y-118.5
X58.0Y-127.5
X58.0Y-132.5
X58.0Y-137.5
X66.0Y-52.5
X66.0Y-57.5
X66.0Y-62.5
X66.0Y-67.5
X93.75Y-54.0
X98.75Y-54.0
X120.0Y-54.0
X125.0Y-54.0
X134.0Y-37.5
X139.0Y-37.5
X140.0Y-127.0
X144.5Y-54.0
X145.0Y-127.0
X149.5Y-54.0
X150.0Y-127.0
X154.5Y-54.0
X155.0Y-127.0
X159.5Y-54.0
X160.0Y-127.0
X165.0Y-127.0
M30
