%TF.GenerationSoftware,KiCad,Pcbnew,9.0.5*%
%TF.CreationDate,2026-07-02T18:11:21-04:00*%
%TF.ProjectId,Electric Skateboard,456c6563-7472-4696-9320-536b61746562,rev?*%
%TF.SameCoordinates,Original*%
%TF.FileFunction,Legend,Top*%
%TF.FilePolarity,Positive*%
%FSLAX46Y46*%
G04 Gerber Fmt 4.6, Leading zero omitted, Abs format (unit mm)*
G04 Created by KiCad (PCBNEW 9.0.5) date 2026-07-02 18:11:21*
%MOMM*%
%LPD*%
G01*
G04 APERTURE LIST*
%ADD10C,0.150000*%
%ADD11C,0.120000*%
G04 APERTURE END LIST*
D10*
X119753333Y-63584819D02*
X119420000Y-63108628D01*
X119181905Y-63584819D02*
X119181905Y-62584819D01*
X119181905Y-62584819D02*
X119562857Y-62584819D01*
X119562857Y-62584819D02*
X119658095Y-62632438D01*
X119658095Y-62632438D02*
X119705714Y-62680057D01*
X119705714Y-62680057D02*
X119753333Y-62775295D01*
X119753333Y-62775295D02*
X119753333Y-62918152D01*
X119753333Y-62918152D02*
X119705714Y-63013390D01*
X119705714Y-63013390D02*
X119658095Y-63061009D01*
X119658095Y-63061009D02*
X119562857Y-63108628D01*
X119562857Y-63108628D02*
X119181905Y-63108628D01*
X120086667Y-62584819D02*
X120705714Y-62584819D01*
X120705714Y-62584819D02*
X120372381Y-62965771D01*
X120372381Y-62965771D02*
X120515238Y-62965771D01*
X120515238Y-62965771D02*
X120610476Y-63013390D01*
X120610476Y-63013390D02*
X120658095Y-63061009D01*
X120658095Y-63061009D02*
X120705714Y-63156247D01*
X120705714Y-63156247D02*
X120705714Y-63394342D01*
X120705714Y-63394342D02*
X120658095Y-63489580D01*
X120658095Y-63489580D02*
X120610476Y-63537200D01*
X120610476Y-63537200D02*
X120515238Y-63584819D01*
X120515238Y-63584819D02*
X120229524Y-63584819D01*
X120229524Y-63584819D02*
X120134286Y-63537200D01*
X120134286Y-63537200D02*
X120086667Y-63489580D01*
X159906666Y-67074819D02*
X159906666Y-67789104D01*
X159906666Y-67789104D02*
X159859047Y-67931961D01*
X159859047Y-67931961D02*
X159763809Y-68027200D01*
X159763809Y-68027200D02*
X159620952Y-68074819D01*
X159620952Y-68074819D02*
X159525714Y-68074819D01*
X160287619Y-67074819D02*
X160906666Y-67074819D01*
X160906666Y-67074819D02*
X160573333Y-67455771D01*
X160573333Y-67455771D02*
X160716190Y-67455771D01*
X160716190Y-67455771D02*
X160811428Y-67503390D01*
X160811428Y-67503390D02*
X160859047Y-67551009D01*
X160859047Y-67551009D02*
X160906666Y-67646247D01*
X160906666Y-67646247D02*
X160906666Y-67884342D01*
X160906666Y-67884342D02*
X160859047Y-67979580D01*
X160859047Y-67979580D02*
X160811428Y-68027200D01*
X160811428Y-68027200D02*
X160716190Y-68074819D01*
X160716190Y-68074819D02*
X160430476Y-68074819D01*
X160430476Y-68074819D02*
X160335238Y-68027200D01*
X160335238Y-68027200D02*
X160287619Y-67979580D01*
X52524489Y-39346995D02*
X52191156Y-38870804D01*
X51953061Y-39346995D02*
X51953061Y-38346995D01*
X51953061Y-38346995D02*
X52334013Y-38346995D01*
X52334013Y-38346995D02*
X52429251Y-38394614D01*
X52429251Y-38394614D02*
X52476870Y-38442233D01*
X52476870Y-38442233D02*
X52524489Y-38537471D01*
X52524489Y-38537471D02*
X52524489Y-38680328D01*
X52524489Y-38680328D02*
X52476870Y-38775566D01*
X52476870Y-38775566D02*
X52429251Y-38823185D01*
X52429251Y-38823185D02*
X52334013Y-38870804D01*
X52334013Y-38870804D02*
X51953061Y-38870804D01*
X52953061Y-38823185D02*
X53286394Y-38823185D01*
X53429251Y-39346995D02*
X52953061Y-39346995D01*
X52953061Y-39346995D02*
X52953061Y-38346995D01*
X52953061Y-38346995D02*
X53429251Y-38346995D01*
X54191156Y-38823185D02*
X53857823Y-38823185D01*
X53857823Y-39346995D02*
X53857823Y-38346995D01*
X53857823Y-38346995D02*
X54334013Y-38346995D01*
X54857823Y-38346995D02*
X54857823Y-38585090D01*
X54619728Y-38489852D02*
X54857823Y-38585090D01*
X54857823Y-38585090D02*
X55095918Y-38489852D01*
X54714966Y-38775566D02*
X54857823Y-38585090D01*
X54857823Y-38585090D02*
X55000680Y-38775566D01*
X55619728Y-38346995D02*
X55619728Y-38585090D01*
X55381633Y-38489852D02*
X55619728Y-38585090D01*
X55619728Y-38585090D02*
X55857823Y-38489852D01*
X55476871Y-38775566D02*
X55619728Y-38585090D01*
X55619728Y-38585090D02*
X55762585Y-38775566D01*
X83994819Y-127833333D02*
X84709104Y-127833333D01*
X84709104Y-127833333D02*
X84851961Y-127880952D01*
X84851961Y-127880952D02*
X84947200Y-127976190D01*
X84947200Y-127976190D02*
X84994819Y-128119047D01*
X84994819Y-128119047D02*
X84994819Y-128214285D01*
X84423390Y-127214285D02*
X84375771Y-127309523D01*
X84375771Y-127309523D02*
X84328152Y-127357142D01*
X84328152Y-127357142D02*
X84232914Y-127404761D01*
X84232914Y-127404761D02*
X84185295Y-127404761D01*
X84185295Y-127404761D02*
X84090057Y-127357142D01*
X84090057Y-127357142D02*
X84042438Y-127309523D01*
X84042438Y-127309523D02*
X83994819Y-127214285D01*
X83994819Y-127214285D02*
X83994819Y-127023809D01*
X83994819Y-127023809D02*
X84042438Y-126928571D01*
X84042438Y-126928571D02*
X84090057Y-126880952D01*
X84090057Y-126880952D02*
X84185295Y-126833333D01*
X84185295Y-126833333D02*
X84232914Y-126833333D01*
X84232914Y-126833333D02*
X84328152Y-126880952D01*
X84328152Y-126880952D02*
X84375771Y-126928571D01*
X84375771Y-126928571D02*
X84423390Y-127023809D01*
X84423390Y-127023809D02*
X84423390Y-127214285D01*
X84423390Y-127214285D02*
X84471009Y-127309523D01*
X84471009Y-127309523D02*
X84518628Y-127357142D01*
X84518628Y-127357142D02*
X84613866Y-127404761D01*
X84613866Y-127404761D02*
X84804342Y-127404761D01*
X84804342Y-127404761D02*
X84899580Y-127357142D01*
X84899580Y-127357142D02*
X84947200Y-127309523D01*
X84947200Y-127309523D02*
X84994819Y-127214285D01*
X84994819Y-127214285D02*
X84994819Y-127023809D01*
X84994819Y-127023809D02*
X84947200Y-126928571D01*
X84947200Y-126928571D02*
X84899580Y-126880952D01*
X84899580Y-126880952D02*
X84804342Y-126833333D01*
X84804342Y-126833333D02*
X84613866Y-126833333D01*
X84613866Y-126833333D02*
X84518628Y-126880952D01*
X84518628Y-126880952D02*
X84471009Y-126928571D01*
X84471009Y-126928571D02*
X84423390Y-127023809D01*
X60334819Y-60583333D02*
X61049104Y-60583333D01*
X61049104Y-60583333D02*
X61191961Y-60630952D01*
X61191961Y-60630952D02*
X61287200Y-60726190D01*
X61287200Y-60726190D02*
X61334819Y-60869047D01*
X61334819Y-60869047D02*
X61334819Y-60964285D01*
X61334819Y-60059523D02*
X61334819Y-59869047D01*
X61334819Y-59869047D02*
X61287200Y-59773809D01*
X61287200Y-59773809D02*
X61239580Y-59726190D01*
X61239580Y-59726190D02*
X61096723Y-59630952D01*
X61096723Y-59630952D02*
X60906247Y-59583333D01*
X60906247Y-59583333D02*
X60525295Y-59583333D01*
X60525295Y-59583333D02*
X60430057Y-59630952D01*
X60430057Y-59630952D02*
X60382438Y-59678571D01*
X60382438Y-59678571D02*
X60334819Y-59773809D01*
X60334819Y-59773809D02*
X60334819Y-59964285D01*
X60334819Y-59964285D02*
X60382438Y-60059523D01*
X60382438Y-60059523D02*
X60430057Y-60107142D01*
X60430057Y-60107142D02*
X60525295Y-60154761D01*
X60525295Y-60154761D02*
X60763390Y-60154761D01*
X60763390Y-60154761D02*
X60858628Y-60107142D01*
X60858628Y-60107142D02*
X60906247Y-60059523D01*
X60906247Y-60059523D02*
X60953866Y-59964285D01*
X60953866Y-59964285D02*
X60953866Y-59773809D01*
X60953866Y-59773809D02*
X60906247Y-59678571D01*
X60906247Y-59678571D02*
X60858628Y-59630952D01*
X60858628Y-59630952D02*
X60763390Y-59583333D01*
X52334819Y-133083333D02*
X53049104Y-133083333D01*
X53049104Y-133083333D02*
X53191961Y-133130952D01*
X53191961Y-133130952D02*
X53287200Y-133226190D01*
X53287200Y-133226190D02*
X53334819Y-133369047D01*
X53334819Y-133369047D02*
X53334819Y-133464285D01*
X52334819Y-132702380D02*
X52334819Y-132035714D01*
X52334819Y-132035714D02*
X53334819Y-132464285D01*
X52334819Y-114083333D02*
X53049104Y-114083333D01*
X53049104Y-114083333D02*
X53191961Y-114130952D01*
X53191961Y-114130952D02*
X53287200Y-114226190D01*
X53287200Y-114226190D02*
X53334819Y-114369047D01*
X53334819Y-114369047D02*
X53334819Y-114464285D01*
X52334819Y-113178571D02*
X52334819Y-113369047D01*
X52334819Y-113369047D02*
X52382438Y-113464285D01*
X52382438Y-113464285D02*
X52430057Y-113511904D01*
X52430057Y-113511904D02*
X52572914Y-113607142D01*
X52572914Y-113607142D02*
X52763390Y-113654761D01*
X52763390Y-113654761D02*
X53144342Y-113654761D01*
X53144342Y-113654761D02*
X53239580Y-113607142D01*
X53239580Y-113607142D02*
X53287200Y-113559523D01*
X53287200Y-113559523D02*
X53334819Y-113464285D01*
X53334819Y-113464285D02*
X53334819Y-113273809D01*
X53334819Y-113273809D02*
X53287200Y-113178571D01*
X53287200Y-113178571D02*
X53239580Y-113130952D01*
X53239580Y-113130952D02*
X53144342Y-113083333D01*
X53144342Y-113083333D02*
X52906247Y-113083333D01*
X52906247Y-113083333D02*
X52811009Y-113130952D01*
X52811009Y-113130952D02*
X52763390Y-113178571D01*
X52763390Y-113178571D02*
X52715771Y-113273809D01*
X52715771Y-113273809D02*
X52715771Y-113464285D01*
X52715771Y-113464285D02*
X52763390Y-113559523D01*
X52763390Y-113559523D02*
X52811009Y-113607142D01*
X52811009Y-113607142D02*
X52906247Y-113654761D01*
X166524489Y-39346995D02*
X166191156Y-38870804D01*
X165953061Y-39346995D02*
X165953061Y-38346995D01*
X165953061Y-38346995D02*
X166334013Y-38346995D01*
X166334013Y-38346995D02*
X166429251Y-38394614D01*
X166429251Y-38394614D02*
X166476870Y-38442233D01*
X166476870Y-38442233D02*
X166524489Y-38537471D01*
X166524489Y-38537471D02*
X166524489Y-38680328D01*
X166524489Y-38680328D02*
X166476870Y-38775566D01*
X166476870Y-38775566D02*
X166429251Y-38823185D01*
X166429251Y-38823185D02*
X166334013Y-38870804D01*
X166334013Y-38870804D02*
X165953061Y-38870804D01*
X166953061Y-38823185D02*
X167286394Y-38823185D01*
X167429251Y-39346995D02*
X166953061Y-39346995D01*
X166953061Y-39346995D02*
X166953061Y-38346995D01*
X166953061Y-38346995D02*
X167429251Y-38346995D01*
X168191156Y-38823185D02*
X167857823Y-38823185D01*
X167857823Y-39346995D02*
X167857823Y-38346995D01*
X167857823Y-38346995D02*
X168334013Y-38346995D01*
X168857823Y-38346995D02*
X168857823Y-38585090D01*
X168619728Y-38489852D02*
X168857823Y-38585090D01*
X168857823Y-38585090D02*
X169095918Y-38489852D01*
X168714966Y-38775566D02*
X168857823Y-38585090D01*
X168857823Y-38585090D02*
X169000680Y-38775566D01*
X169619728Y-38346995D02*
X169619728Y-38585090D01*
X169381633Y-38489852D02*
X169619728Y-38585090D01*
X169619728Y-38585090D02*
X169857823Y-38489852D01*
X169476871Y-38775566D02*
X169619728Y-38585090D01*
X169619728Y-38585090D02*
X169762585Y-38775566D01*
X95190476Y-48334819D02*
X95190476Y-49049104D01*
X95190476Y-49049104D02*
X95142857Y-49191961D01*
X95142857Y-49191961D02*
X95047619Y-49287200D01*
X95047619Y-49287200D02*
X94904762Y-49334819D01*
X94904762Y-49334819D02*
X94809524Y-49334819D01*
X96190476Y-49334819D02*
X95619048Y-49334819D01*
X95904762Y-49334819D02*
X95904762Y-48334819D01*
X95904762Y-48334819D02*
X95809524Y-48477676D01*
X95809524Y-48477676D02*
X95714286Y-48572914D01*
X95714286Y-48572914D02*
X95619048Y-48620533D01*
X96571429Y-48430057D02*
X96619048Y-48382438D01*
X96619048Y-48382438D02*
X96714286Y-48334819D01*
X96714286Y-48334819D02*
X96952381Y-48334819D01*
X96952381Y-48334819D02*
X97047619Y-48382438D01*
X97047619Y-48382438D02*
X97095238Y-48430057D01*
X97095238Y-48430057D02*
X97142857Y-48525295D01*
X97142857Y-48525295D02*
X97142857Y-48620533D01*
X97142857Y-48620533D02*
X97095238Y-48763390D01*
X97095238Y-48763390D02*
X96523810Y-49334819D01*
X96523810Y-49334819D02*
X97142857Y-49334819D01*
X133913333Y-78084819D02*
X133580000Y-77608628D01*
X133341905Y-78084819D02*
X133341905Y-77084819D01*
X133341905Y-77084819D02*
X133722857Y-77084819D01*
X133722857Y-77084819D02*
X133818095Y-77132438D01*
X133818095Y-77132438D02*
X133865714Y-77180057D01*
X133865714Y-77180057D02*
X133913333Y-77275295D01*
X133913333Y-77275295D02*
X133913333Y-77418152D01*
X133913333Y-77418152D02*
X133865714Y-77513390D01*
X133865714Y-77513390D02*
X133818095Y-77561009D01*
X133818095Y-77561009D02*
X133722857Y-77608628D01*
X133722857Y-77608628D02*
X133341905Y-77608628D01*
X134294286Y-77180057D02*
X134341905Y-77132438D01*
X134341905Y-77132438D02*
X134437143Y-77084819D01*
X134437143Y-77084819D02*
X134675238Y-77084819D01*
X134675238Y-77084819D02*
X134770476Y-77132438D01*
X134770476Y-77132438D02*
X134818095Y-77180057D01*
X134818095Y-77180057D02*
X134865714Y-77275295D01*
X134865714Y-77275295D02*
X134865714Y-77370533D01*
X134865714Y-77370533D02*
X134818095Y-77513390D01*
X134818095Y-77513390D02*
X134246667Y-78084819D01*
X134246667Y-78084819D02*
X134865714Y-78084819D01*
X52524489Y-150846995D02*
X52191156Y-150370804D01*
X51953061Y-150846995D02*
X51953061Y-149846995D01*
X51953061Y-149846995D02*
X52334013Y-149846995D01*
X52334013Y-149846995D02*
X52429251Y-149894614D01*
X52429251Y-149894614D02*
X52476870Y-149942233D01*
X52476870Y-149942233D02*
X52524489Y-150037471D01*
X52524489Y-150037471D02*
X52524489Y-150180328D01*
X52524489Y-150180328D02*
X52476870Y-150275566D01*
X52476870Y-150275566D02*
X52429251Y-150323185D01*
X52429251Y-150323185D02*
X52334013Y-150370804D01*
X52334013Y-150370804D02*
X51953061Y-150370804D01*
X52953061Y-150323185D02*
X53286394Y-150323185D01*
X53429251Y-150846995D02*
X52953061Y-150846995D01*
X52953061Y-150846995D02*
X52953061Y-149846995D01*
X52953061Y-149846995D02*
X53429251Y-149846995D01*
X54191156Y-150323185D02*
X53857823Y-150323185D01*
X53857823Y-150846995D02*
X53857823Y-149846995D01*
X53857823Y-149846995D02*
X54334013Y-149846995D01*
X54857823Y-149846995D02*
X54857823Y-150085090D01*
X54619728Y-149989852D02*
X54857823Y-150085090D01*
X54857823Y-150085090D02*
X55095918Y-149989852D01*
X54714966Y-150275566D02*
X54857823Y-150085090D01*
X54857823Y-150085090D02*
X55000680Y-150275566D01*
X55619728Y-149846995D02*
X55619728Y-150085090D01*
X55381633Y-149989852D02*
X55619728Y-150085090D01*
X55619728Y-150085090D02*
X55857823Y-149989852D01*
X55476871Y-150275566D02*
X55619728Y-150085090D01*
X55619728Y-150085090D02*
X55762585Y-150275566D01*
X133753333Y-71584819D02*
X133420000Y-71108628D01*
X133181905Y-71584819D02*
X133181905Y-70584819D01*
X133181905Y-70584819D02*
X133562857Y-70584819D01*
X133562857Y-70584819D02*
X133658095Y-70632438D01*
X133658095Y-70632438D02*
X133705714Y-70680057D01*
X133705714Y-70680057D02*
X133753333Y-70775295D01*
X133753333Y-70775295D02*
X133753333Y-70918152D01*
X133753333Y-70918152D02*
X133705714Y-71013390D01*
X133705714Y-71013390D02*
X133658095Y-71061009D01*
X133658095Y-71061009D02*
X133562857Y-71108628D01*
X133562857Y-71108628D02*
X133181905Y-71108628D01*
X134705714Y-71584819D02*
X134134286Y-71584819D01*
X134420000Y-71584819D02*
X134420000Y-70584819D01*
X134420000Y-70584819D02*
X134324762Y-70727676D01*
X134324762Y-70727676D02*
X134229524Y-70822914D01*
X134229524Y-70822914D02*
X134134286Y-70870533D01*
X134404761Y-61900057D02*
X134309523Y-61852438D01*
X134309523Y-61852438D02*
X134214285Y-61757200D01*
X134214285Y-61757200D02*
X134071428Y-61614342D01*
X134071428Y-61614342D02*
X133976190Y-61566723D01*
X133976190Y-61566723D02*
X133880952Y-61566723D01*
X133928571Y-61804819D02*
X133833333Y-61757200D01*
X133833333Y-61757200D02*
X133738095Y-61661961D01*
X133738095Y-61661961D02*
X133690476Y-61471485D01*
X133690476Y-61471485D02*
X133690476Y-61138152D01*
X133690476Y-61138152D02*
X133738095Y-60947676D01*
X133738095Y-60947676D02*
X133833333Y-60852438D01*
X133833333Y-60852438D02*
X133928571Y-60804819D01*
X133928571Y-60804819D02*
X134119047Y-60804819D01*
X134119047Y-60804819D02*
X134214285Y-60852438D01*
X134214285Y-60852438D02*
X134309523Y-60947676D01*
X134309523Y-60947676D02*
X134357142Y-61138152D01*
X134357142Y-61138152D02*
X134357142Y-61471485D01*
X134357142Y-61471485D02*
X134309523Y-61661961D01*
X134309523Y-61661961D02*
X134214285Y-61757200D01*
X134214285Y-61757200D02*
X134119047Y-61804819D01*
X134119047Y-61804819D02*
X133928571Y-61804819D01*
X135309523Y-61804819D02*
X134738095Y-61804819D01*
X135023809Y-61804819D02*
X135023809Y-60804819D01*
X135023809Y-60804819D02*
X134928571Y-60947676D01*
X134928571Y-60947676D02*
X134833333Y-61042914D01*
X134833333Y-61042914D02*
X134738095Y-61090533D01*
X119753333Y-71084819D02*
X119420000Y-70608628D01*
X119181905Y-71084819D02*
X119181905Y-70084819D01*
X119181905Y-70084819D02*
X119562857Y-70084819D01*
X119562857Y-70084819D02*
X119658095Y-70132438D01*
X119658095Y-70132438D02*
X119705714Y-70180057D01*
X119705714Y-70180057D02*
X119753333Y-70275295D01*
X119753333Y-70275295D02*
X119753333Y-70418152D01*
X119753333Y-70418152D02*
X119705714Y-70513390D01*
X119705714Y-70513390D02*
X119658095Y-70561009D01*
X119658095Y-70561009D02*
X119562857Y-70608628D01*
X119562857Y-70608628D02*
X119181905Y-70608628D01*
X120610476Y-70418152D02*
X120610476Y-71084819D01*
X120372381Y-70037200D02*
X120134286Y-70751485D01*
X120134286Y-70751485D02*
X120753333Y-70751485D01*
X166524489Y-150846995D02*
X166191156Y-150370804D01*
X165953061Y-150846995D02*
X165953061Y-149846995D01*
X165953061Y-149846995D02*
X166334013Y-149846995D01*
X166334013Y-149846995D02*
X166429251Y-149894614D01*
X166429251Y-149894614D02*
X166476870Y-149942233D01*
X166476870Y-149942233D02*
X166524489Y-150037471D01*
X166524489Y-150037471D02*
X166524489Y-150180328D01*
X166524489Y-150180328D02*
X166476870Y-150275566D01*
X166476870Y-150275566D02*
X166429251Y-150323185D01*
X166429251Y-150323185D02*
X166334013Y-150370804D01*
X166334013Y-150370804D02*
X165953061Y-150370804D01*
X166953061Y-150323185D02*
X167286394Y-150323185D01*
X167429251Y-150846995D02*
X166953061Y-150846995D01*
X166953061Y-150846995D02*
X166953061Y-149846995D01*
X166953061Y-149846995D02*
X167429251Y-149846995D01*
X168191156Y-150323185D02*
X167857823Y-150323185D01*
X167857823Y-150846995D02*
X167857823Y-149846995D01*
X167857823Y-149846995D02*
X168334013Y-149846995D01*
X168857823Y-149846995D02*
X168857823Y-150085090D01*
X168619728Y-149989852D02*
X168857823Y-150085090D01*
X168857823Y-150085090D02*
X169095918Y-149989852D01*
X168714966Y-150275566D02*
X168857823Y-150085090D01*
X168857823Y-150085090D02*
X169000680Y-150275566D01*
X169619728Y-149846995D02*
X169619728Y-150085090D01*
X169381633Y-149989852D02*
X169619728Y-150085090D01*
X169619728Y-150085090D02*
X169857823Y-149989852D01*
X169476871Y-150275566D02*
X169619728Y-150085090D01*
X169619728Y-150085090D02*
X169762585Y-150275566D01*
X150940476Y-48334819D02*
X150940476Y-49049104D01*
X150940476Y-49049104D02*
X150892857Y-49191961D01*
X150892857Y-49191961D02*
X150797619Y-49287200D01*
X150797619Y-49287200D02*
X150654762Y-49334819D01*
X150654762Y-49334819D02*
X150559524Y-49334819D01*
X151940476Y-49334819D02*
X151369048Y-49334819D01*
X151654762Y-49334819D02*
X151654762Y-48334819D01*
X151654762Y-48334819D02*
X151559524Y-48477676D01*
X151559524Y-48477676D02*
X151464286Y-48572914D01*
X151464286Y-48572914D02*
X151369048Y-48620533D01*
X152892857Y-49334819D02*
X152321429Y-49334819D01*
X152607143Y-49334819D02*
X152607143Y-48334819D01*
X152607143Y-48334819D02*
X152511905Y-48477676D01*
X152511905Y-48477676D02*
X152416667Y-48572914D01*
X152416667Y-48572914D02*
X152321429Y-48620533D01*
X83666666Y-67074819D02*
X83666666Y-67789104D01*
X83666666Y-67789104D02*
X83619047Y-67931961D01*
X83619047Y-67931961D02*
X83523809Y-68027200D01*
X83523809Y-68027200D02*
X83380952Y-68074819D01*
X83380952Y-68074819D02*
X83285714Y-68074819D01*
X84095238Y-67170057D02*
X84142857Y-67122438D01*
X84142857Y-67122438D02*
X84238095Y-67074819D01*
X84238095Y-67074819D02*
X84476190Y-67074819D01*
X84476190Y-67074819D02*
X84571428Y-67122438D01*
X84571428Y-67122438D02*
X84619047Y-67170057D01*
X84619047Y-67170057D02*
X84666666Y-67265295D01*
X84666666Y-67265295D02*
X84666666Y-67360533D01*
X84666666Y-67360533D02*
X84619047Y-67503390D01*
X84619047Y-67503390D02*
X84047619Y-68074819D01*
X84047619Y-68074819D02*
X84666666Y-68074819D01*
X144666666Y-67074819D02*
X144666666Y-67789104D01*
X144666666Y-67789104D02*
X144619047Y-67931961D01*
X144619047Y-67931961D02*
X144523809Y-68027200D01*
X144523809Y-68027200D02*
X144380952Y-68074819D01*
X144380952Y-68074819D02*
X144285714Y-68074819D01*
X145571428Y-67408152D02*
X145571428Y-68074819D01*
X145333333Y-67027200D02*
X145095238Y-67741485D01*
X145095238Y-67741485D02*
X145714285Y-67741485D01*
X151440476Y-121334819D02*
X151440476Y-122049104D01*
X151440476Y-122049104D02*
X151392857Y-122191961D01*
X151392857Y-122191961D02*
X151297619Y-122287200D01*
X151297619Y-122287200D02*
X151154762Y-122334819D01*
X151154762Y-122334819D02*
X151059524Y-122334819D01*
X152440476Y-122334819D02*
X151869048Y-122334819D01*
X152154762Y-122334819D02*
X152154762Y-121334819D01*
X152154762Y-121334819D02*
X152059524Y-121477676D01*
X152059524Y-121477676D02*
X151964286Y-121572914D01*
X151964286Y-121572914D02*
X151869048Y-121620533D01*
X153059524Y-121334819D02*
X153154762Y-121334819D01*
X153154762Y-121334819D02*
X153250000Y-121382438D01*
X153250000Y-121382438D02*
X153297619Y-121430057D01*
X153297619Y-121430057D02*
X153345238Y-121525295D01*
X153345238Y-121525295D02*
X153392857Y-121715771D01*
X153392857Y-121715771D02*
X153392857Y-121953866D01*
X153392857Y-121953866D02*
X153345238Y-122144342D01*
X153345238Y-122144342D02*
X153297619Y-122239580D01*
X153297619Y-122239580D02*
X153250000Y-122287200D01*
X153250000Y-122287200D02*
X153154762Y-122334819D01*
X153154762Y-122334819D02*
X153059524Y-122334819D01*
X153059524Y-122334819D02*
X152964286Y-122287200D01*
X152964286Y-122287200D02*
X152916667Y-122239580D01*
X152916667Y-122239580D02*
X152869048Y-122144342D01*
X152869048Y-122144342D02*
X152821429Y-121953866D01*
X152821429Y-121953866D02*
X152821429Y-121715771D01*
X152821429Y-121715771D02*
X152869048Y-121525295D01*
X152869048Y-121525295D02*
X152916667Y-121430057D01*
X152916667Y-121430057D02*
X152964286Y-121382438D01*
X152964286Y-121382438D02*
X153059524Y-121334819D01*
X135511905Y-32834819D02*
X135511905Y-31834819D01*
X135511905Y-31834819D02*
X135750000Y-31834819D01*
X135750000Y-31834819D02*
X135892857Y-31882438D01*
X135892857Y-31882438D02*
X135988095Y-31977676D01*
X135988095Y-31977676D02*
X136035714Y-32072914D01*
X136035714Y-32072914D02*
X136083333Y-32263390D01*
X136083333Y-32263390D02*
X136083333Y-32406247D01*
X136083333Y-32406247D02*
X136035714Y-32596723D01*
X136035714Y-32596723D02*
X135988095Y-32691961D01*
X135988095Y-32691961D02*
X135892857Y-32787200D01*
X135892857Y-32787200D02*
X135750000Y-32834819D01*
X135750000Y-32834819D02*
X135511905Y-32834819D01*
X137035714Y-32834819D02*
X136464286Y-32834819D01*
X136750000Y-32834819D02*
X136750000Y-31834819D01*
X136750000Y-31834819D02*
X136654762Y-31977676D01*
X136654762Y-31977676D02*
X136559524Y-32072914D01*
X136559524Y-32072914D02*
X136464286Y-32120533D01*
X94084819Y-68586666D02*
X93608628Y-68919999D01*
X94084819Y-69158094D02*
X93084819Y-69158094D01*
X93084819Y-69158094D02*
X93084819Y-68777142D01*
X93084819Y-68777142D02*
X93132438Y-68681904D01*
X93132438Y-68681904D02*
X93180057Y-68634285D01*
X93180057Y-68634285D02*
X93275295Y-68586666D01*
X93275295Y-68586666D02*
X93418152Y-68586666D01*
X93418152Y-68586666D02*
X93513390Y-68634285D01*
X93513390Y-68634285D02*
X93561009Y-68681904D01*
X93561009Y-68681904D02*
X93608628Y-68777142D01*
X93608628Y-68777142D02*
X93608628Y-69158094D01*
X93084819Y-67729523D02*
X93084819Y-67919999D01*
X93084819Y-67919999D02*
X93132438Y-68015237D01*
X93132438Y-68015237D02*
X93180057Y-68062856D01*
X93180057Y-68062856D02*
X93322914Y-68158094D01*
X93322914Y-68158094D02*
X93513390Y-68205713D01*
X93513390Y-68205713D02*
X93894342Y-68205713D01*
X93894342Y-68205713D02*
X93989580Y-68158094D01*
X93989580Y-68158094D02*
X94037200Y-68110475D01*
X94037200Y-68110475D02*
X94084819Y-68015237D01*
X94084819Y-68015237D02*
X94084819Y-67824761D01*
X94084819Y-67824761D02*
X94037200Y-67729523D01*
X94037200Y-67729523D02*
X93989580Y-67681904D01*
X93989580Y-67681904D02*
X93894342Y-67634285D01*
X93894342Y-67634285D02*
X93656247Y-67634285D01*
X93656247Y-67634285D02*
X93561009Y-67681904D01*
X93561009Y-67681904D02*
X93513390Y-67729523D01*
X93513390Y-67729523D02*
X93465771Y-67824761D01*
X93465771Y-67824761D02*
X93465771Y-68015237D01*
X93465771Y-68015237D02*
X93513390Y-68110475D01*
X93513390Y-68110475D02*
X93561009Y-68158094D01*
X93561009Y-68158094D02*
X93656247Y-68205713D01*
X106526666Y-67074819D02*
X106526666Y-67789104D01*
X106526666Y-67789104D02*
X106479047Y-67931961D01*
X106479047Y-67931961D02*
X106383809Y-68027200D01*
X106383809Y-68027200D02*
X106240952Y-68074819D01*
X106240952Y-68074819D02*
X106145714Y-68074819D01*
X107526666Y-68074819D02*
X106955238Y-68074819D01*
X107240952Y-68074819D02*
X107240952Y-67074819D01*
X107240952Y-67074819D02*
X107145714Y-67217676D01*
X107145714Y-67217676D02*
X107050476Y-67312914D01*
X107050476Y-67312914D02*
X106955238Y-67360533D01*
X58619047Y-87731009D02*
X58761904Y-87778628D01*
X58761904Y-87778628D02*
X58809523Y-87826247D01*
X58809523Y-87826247D02*
X58857142Y-87921485D01*
X58857142Y-87921485D02*
X58857142Y-88064342D01*
X58857142Y-88064342D02*
X58809523Y-88159580D01*
X58809523Y-88159580D02*
X58761904Y-88207200D01*
X58761904Y-88207200D02*
X58666666Y-88254819D01*
X58666666Y-88254819D02*
X58285714Y-88254819D01*
X58285714Y-88254819D02*
X58285714Y-87254819D01*
X58285714Y-87254819D02*
X58619047Y-87254819D01*
X58619047Y-87254819D02*
X58714285Y-87302438D01*
X58714285Y-87302438D02*
X58761904Y-87350057D01*
X58761904Y-87350057D02*
X58809523Y-87445295D01*
X58809523Y-87445295D02*
X58809523Y-87540533D01*
X58809523Y-87540533D02*
X58761904Y-87635771D01*
X58761904Y-87635771D02*
X58714285Y-87683390D01*
X58714285Y-87683390D02*
X58619047Y-87731009D01*
X58619047Y-87731009D02*
X58285714Y-87731009D01*
X59190476Y-87254819D02*
X59857142Y-87254819D01*
X59857142Y-87254819D02*
X59190476Y-88254819D01*
X59190476Y-88254819D02*
X59857142Y-88254819D01*
X60761904Y-88254819D02*
X60190476Y-88254819D01*
X60476190Y-88254819D02*
X60476190Y-87254819D01*
X60476190Y-87254819D02*
X60380952Y-87397676D01*
X60380952Y-87397676D02*
X60285714Y-87492914D01*
X60285714Y-87492914D02*
X60190476Y-87540533D01*
X55309048Y-92533866D02*
X56070953Y-92533866D01*
X55690000Y-92914819D02*
X55690000Y-92152914D01*
X121916666Y-48334819D02*
X121916666Y-49049104D01*
X121916666Y-49049104D02*
X121869047Y-49191961D01*
X121869047Y-49191961D02*
X121773809Y-49287200D01*
X121773809Y-49287200D02*
X121630952Y-49334819D01*
X121630952Y-49334819D02*
X121535714Y-49334819D01*
X122869047Y-48334819D02*
X122392857Y-48334819D01*
X122392857Y-48334819D02*
X122345238Y-48811009D01*
X122345238Y-48811009D02*
X122392857Y-48763390D01*
X122392857Y-48763390D02*
X122488095Y-48715771D01*
X122488095Y-48715771D02*
X122726190Y-48715771D01*
X122726190Y-48715771D02*
X122821428Y-48763390D01*
X122821428Y-48763390D02*
X122869047Y-48811009D01*
X122869047Y-48811009D02*
X122916666Y-48906247D01*
X122916666Y-48906247D02*
X122916666Y-49144342D01*
X122916666Y-49144342D02*
X122869047Y-49239580D01*
X122869047Y-49239580D02*
X122821428Y-49287200D01*
X122821428Y-49287200D02*
X122726190Y-49334819D01*
X122726190Y-49334819D02*
X122488095Y-49334819D01*
X122488095Y-49334819D02*
X122392857Y-49287200D01*
X122392857Y-49287200D02*
X122345238Y-49239580D01*
D11*
%TO.C,R3*%
X115880000Y-65500000D02*
X116650000Y-65500000D01*
X123960000Y-65500000D02*
X123190000Y-65500000D01*
X116650000Y-64130000D02*
X123190000Y-64130000D01*
X123190000Y-66870000D01*
X116650000Y-66870000D01*
X116650000Y-64130000D01*
%TO.C,J3*%
X158860000Y-68620000D02*
X160240000Y-68620000D01*
X158860000Y-70000000D02*
X158860000Y-68620000D01*
X158860000Y-71270000D02*
X158860000Y-106940000D01*
X158860000Y-71270000D02*
X161620000Y-71270000D01*
X158860000Y-106940000D02*
X161620000Y-106940000D01*
X161620000Y-71270000D02*
X161620000Y-106940000D01*
%TO.C,J8*%
X85540000Y-128880000D02*
X85540000Y-127500000D01*
X86920000Y-128880000D02*
X85540000Y-128880000D01*
X88190000Y-126120000D02*
X106080000Y-126120000D01*
X88190000Y-128880000D02*
X88190000Y-126120000D01*
X88190000Y-128880000D02*
X106080000Y-128880000D01*
X106080000Y-128880000D02*
X106080000Y-126120000D01*
%TO.C,J9*%
X61880000Y-49880000D02*
X69920000Y-49880000D01*
X61880000Y-70620000D02*
X61880000Y-49880000D01*
X65500000Y-50688000D02*
X65500000Y-49880000D01*
X65500000Y-55688000D02*
X65500000Y-54312000D01*
X65500000Y-60688000D02*
X65500000Y-59312000D01*
X65500000Y-65620000D02*
X65500000Y-64312000D01*
X65500000Y-70620000D02*
X65500000Y-69380000D01*
X66500000Y-50688000D02*
X66500000Y-49880000D01*
X66500000Y-55688000D02*
X66500000Y-54312000D01*
X66500000Y-60688000D02*
X66500000Y-59312000D01*
X66500000Y-65620000D02*
X66500000Y-64312000D01*
X66500000Y-70620000D02*
X66500000Y-69380000D01*
X67800000Y-51957000D02*
X67800000Y-49880000D01*
X67800000Y-56957000D02*
X67800000Y-53043000D01*
X67800000Y-61957000D02*
X67800000Y-58043000D01*
X67800000Y-65620000D02*
X67800000Y-63043000D01*
X67800000Y-70620000D02*
X67800000Y-69380000D01*
X69920000Y-49880000D02*
X69920000Y-67200000D01*
X69920000Y-67800000D02*
X69920000Y-70620000D01*
X69920000Y-70620000D02*
X61880000Y-70620000D01*
X70530000Y-67940000D02*
X69920000Y-67500000D01*
X70530000Y-67060000D01*
X70530000Y-67940000D01*
G36*
X70530000Y-67940000D02*
G01*
X69920000Y-67500000D01*
X70530000Y-67060000D01*
X70530000Y-67940000D01*
G37*
%TO.C,J7*%
X53880000Y-124880000D02*
X61920000Y-124880000D01*
X53880000Y-140620000D02*
X53880000Y-124880000D01*
X57500000Y-125688000D02*
X57500000Y-124880000D01*
X57500000Y-130688000D02*
X57500000Y-129312000D01*
X57500000Y-135620000D02*
X57500000Y-134312000D01*
X57500000Y-140620000D02*
X57500000Y-139380000D01*
X58500000Y-125688000D02*
X58500000Y-124880000D01*
X58500000Y-130688000D02*
X58500000Y-129312000D01*
X58500000Y-135620000D02*
X58500000Y-134312000D01*
X58500000Y-140620000D02*
X58500000Y-139380000D01*
X59800000Y-126957000D02*
X59800000Y-124880000D01*
X59800000Y-131957000D02*
X59800000Y-128043000D01*
X59800000Y-135620000D02*
X59800000Y-133043000D01*
X59800000Y-140620000D02*
X59800000Y-139380000D01*
X61920000Y-124880000D02*
X61920000Y-137200000D01*
X61920000Y-137800000D02*
X61920000Y-140620000D01*
X61920000Y-140620000D02*
X53880000Y-140620000D01*
X62530000Y-137940000D02*
X61920000Y-137500000D01*
X62530000Y-137060000D01*
X62530000Y-137940000D01*
G36*
X62530000Y-137940000D02*
G01*
X61920000Y-137500000D01*
X62530000Y-137060000D01*
X62530000Y-137940000D01*
G37*
%TO.C,J6*%
X53880000Y-105880000D02*
X61920000Y-105880000D01*
X53880000Y-121620000D02*
X53880000Y-105880000D01*
X57500000Y-106688000D02*
X57500000Y-105880000D01*
X57500000Y-111688000D02*
X57500000Y-110312000D01*
X57500000Y-116620000D02*
X57500000Y-115312000D01*
X57500000Y-121620000D02*
X57500000Y-120380000D01*
X58500000Y-106688000D02*
X58500000Y-105880000D01*
X58500000Y-111688000D02*
X58500000Y-110312000D01*
X58500000Y-116620000D02*
X58500000Y-115312000D01*
X58500000Y-121620000D02*
X58500000Y-120380000D01*
X59800000Y-107957000D02*
X59800000Y-105880000D01*
X59800000Y-112957000D02*
X59800000Y-109043000D01*
X59800000Y-116620000D02*
X59800000Y-114043000D01*
X59800000Y-121620000D02*
X59800000Y-120380000D01*
X61920000Y-105880000D02*
X61920000Y-118200000D01*
X61920000Y-118800000D02*
X61920000Y-121620000D01*
X61920000Y-121620000D02*
X53880000Y-121620000D01*
X62530000Y-118940000D02*
X61920000Y-118500000D01*
X62530000Y-118060000D01*
X62530000Y-118940000D01*
G36*
X62530000Y-118940000D02*
G01*
X61920000Y-118500000D01*
X62530000Y-118060000D01*
X62530000Y-118940000D01*
G37*
%TO.C,J12*%
X90630000Y-49880000D02*
X101370000Y-49880000D01*
X90630000Y-53500000D02*
X91870000Y-53500000D01*
X90630000Y-54500000D02*
X91870000Y-54500000D01*
X90630000Y-55800000D02*
X91870000Y-55800000D01*
X90630000Y-57920000D02*
X90630000Y-49880000D01*
X93450000Y-57920000D02*
X90630000Y-57920000D01*
X95630000Y-53500000D02*
X96938000Y-53500000D01*
X95630000Y-54500000D02*
X96938000Y-54500000D01*
X95630000Y-55800000D02*
X98207000Y-55800000D01*
X99293000Y-55800000D02*
X101370000Y-55800000D01*
X100562000Y-53500000D02*
X101370000Y-53500000D01*
X100562000Y-54500000D02*
X101370000Y-54500000D01*
X101370000Y-49880000D02*
X101370000Y-57920000D01*
X101370000Y-57920000D02*
X94050000Y-57920000D01*
X94190000Y-58530000D02*
X93310000Y-58530000D01*
X93750000Y-57920000D01*
X94190000Y-58530000D01*
G36*
X94190000Y-58530000D02*
G01*
X93310000Y-58530000D01*
X93750000Y-57920000D01*
X94190000Y-58530000D01*
G37*
%TO.C,R2*%
X130040000Y-80000000D02*
X130810000Y-80000000D01*
X138120000Y-80000000D02*
X137350000Y-80000000D01*
X130810000Y-78630000D02*
X137350000Y-78630000D01*
X137350000Y-81370000D01*
X130810000Y-81370000D01*
X130810000Y-78630000D01*
%TO.C,R1*%
X129880000Y-73500000D02*
X130650000Y-73500000D01*
X137960000Y-73500000D02*
X137190000Y-73500000D01*
X130650000Y-72130000D02*
X137190000Y-72130000D01*
X137190000Y-74870000D01*
X130650000Y-74870000D01*
X130650000Y-72130000D01*
%TO.C,Q1*%
X129390000Y-62190000D02*
X139610000Y-62190000D01*
X129390000Y-63570000D02*
X139610000Y-63570000D01*
X129390000Y-66810000D02*
X129390000Y-62190000D01*
X132650000Y-62190000D02*
X132650000Y-63570000D01*
X136350000Y-62190000D02*
X136350000Y-63570000D01*
X139610000Y-62190000D02*
X139610000Y-66810000D01*
X139610000Y-66810000D02*
X129390000Y-66810000D01*
%TO.C,R4*%
X115880000Y-73000000D02*
X116650000Y-73000000D01*
X123960000Y-73000000D02*
X123190000Y-73000000D01*
X116650000Y-71630000D02*
X123190000Y-71630000D01*
X123190000Y-74370000D01*
X116650000Y-74370000D01*
X116650000Y-71630000D01*
%TO.C,J11*%
X141380000Y-49880000D02*
X162120000Y-49880000D01*
X141380000Y-53500000D02*
X142620000Y-53500000D01*
X141380000Y-54500000D02*
X142620000Y-54500000D01*
X141380000Y-55800000D02*
X142620000Y-55800000D01*
X141380000Y-57920000D02*
X141380000Y-49880000D01*
X144200000Y-57920000D02*
X141380000Y-57920000D01*
X146380000Y-53500000D02*
X147688000Y-53500000D01*
X146380000Y-54500000D02*
X147688000Y-54500000D01*
X146380000Y-55800000D02*
X148957000Y-55800000D01*
X150043000Y-55800000D02*
X153957000Y-55800000D01*
X151312000Y-53500000D02*
X152688000Y-53500000D01*
X151312000Y-54500000D02*
X152688000Y-54500000D01*
X155043000Y-55800000D02*
X158957000Y-55800000D01*
X156312000Y-53500000D02*
X157688000Y-53500000D01*
X156312000Y-54500000D02*
X157688000Y-54500000D01*
X160043000Y-55800000D02*
X162120000Y-55800000D01*
X161312000Y-53500000D02*
X162120000Y-53500000D01*
X161312000Y-54500000D02*
X162120000Y-54500000D01*
X162120000Y-49880000D02*
X162120000Y-57920000D01*
X162120000Y-57920000D02*
X144800000Y-57920000D01*
X144940000Y-58530000D02*
X144060000Y-58530000D01*
X144500000Y-57920000D01*
X144940000Y-58530000D01*
G36*
X144940000Y-58530000D02*
G01*
X144060000Y-58530000D01*
X144500000Y-57920000D01*
X144940000Y-58530000D01*
G37*
%TO.C,J2*%
X82620000Y-68620000D02*
X84000000Y-68620000D01*
X82620000Y-70000000D02*
X82620000Y-68620000D01*
X82620000Y-71270000D02*
X82620000Y-106940000D01*
X82620000Y-71270000D02*
X85380000Y-71270000D01*
X82620000Y-106940000D02*
X85380000Y-106940000D01*
X85380000Y-71270000D02*
X85380000Y-106940000D01*
%TO.C,J4*%
X143620000Y-68620000D02*
X145000000Y-68620000D01*
X143620000Y-70000000D02*
X143620000Y-68620000D01*
X143620000Y-71270000D02*
X143620000Y-106940000D01*
X143620000Y-71270000D02*
X146380000Y-71270000D01*
X143620000Y-106940000D02*
X146380000Y-106940000D01*
X146380000Y-71270000D02*
X146380000Y-106940000D01*
%TO.C,J10*%
X136880000Y-122880000D02*
X167620000Y-122880000D01*
X136880000Y-126500000D02*
X138120000Y-126500000D01*
X136880000Y-127500000D02*
X138120000Y-127500000D01*
X136880000Y-128800000D02*
X138120000Y-128800000D01*
X136880000Y-130920000D02*
X136880000Y-122880000D01*
X139700000Y-130920000D02*
X136880000Y-130920000D01*
X141880000Y-126500000D02*
X143188000Y-126500000D01*
X141880000Y-127500000D02*
X143188000Y-127500000D01*
X141880000Y-128800000D02*
X144457000Y-128800000D01*
X145543000Y-128800000D02*
X149457000Y-128800000D01*
X146812000Y-126500000D02*
X148188000Y-126500000D01*
X146812000Y-127500000D02*
X148188000Y-127500000D01*
X150543000Y-128800000D02*
X154457000Y-128800000D01*
X151812000Y-126500000D02*
X153188000Y-126500000D01*
X151812000Y-127500000D02*
X153188000Y-127500000D01*
X155543000Y-128800000D02*
X159457000Y-128800000D01*
X156812000Y-126500000D02*
X158188000Y-126500000D01*
X156812000Y-127500000D02*
X158188000Y-127500000D01*
X160543000Y-128800000D02*
X164457000Y-128800000D01*
X161812000Y-126500000D02*
X163188000Y-126500000D01*
X161812000Y-127500000D02*
X163188000Y-127500000D01*
X165543000Y-128800000D02*
X167620000Y-128800000D01*
X166812000Y-126500000D02*
X167620000Y-126500000D01*
X166812000Y-127500000D02*
X167620000Y-127500000D01*
X167620000Y-122880000D02*
X167620000Y-130920000D01*
X167620000Y-130920000D02*
X140300000Y-130920000D01*
X140440000Y-131530000D02*
X139560000Y-131530000D01*
X140000000Y-130920000D01*
X140440000Y-131530000D01*
G36*
X140440000Y-131530000D02*
G01*
X139560000Y-131530000D01*
X140000000Y-130920000D01*
X140440000Y-131530000D01*
G37*
%TO.C,D1*%
X130880000Y-33380000D02*
X141620000Y-33380000D01*
X130880000Y-37000000D02*
X132120000Y-37000000D01*
X130880000Y-38000000D02*
X132120000Y-38000000D01*
X130880000Y-39300000D02*
X132120000Y-39300000D01*
X130880000Y-41420000D02*
X130880000Y-33380000D01*
X133700000Y-41420000D02*
X130880000Y-41420000D01*
X135880000Y-37000000D02*
X137188000Y-37000000D01*
X135880000Y-38000000D02*
X137188000Y-38000000D01*
X135880000Y-39300000D02*
X138457000Y-39300000D01*
X139543000Y-39300000D02*
X141620000Y-39300000D01*
X140812000Y-37000000D02*
X141620000Y-37000000D01*
X140812000Y-38000000D02*
X141620000Y-38000000D01*
X141620000Y-33380000D02*
X141620000Y-41420000D01*
X141620000Y-41420000D02*
X134300000Y-41420000D01*
X134440000Y-42030000D02*
X133560000Y-42030000D01*
X134000000Y-41420000D01*
X134440000Y-42030000D01*
G36*
X134440000Y-42030000D02*
G01*
X133560000Y-42030000D01*
X134000000Y-41420000D01*
X134440000Y-42030000D01*
G37*
%TO.C,R6*%
X96000000Y-64380000D02*
X96000000Y-65150000D01*
X96000000Y-72460000D02*
X96000000Y-71690000D01*
X94630000Y-71690000D02*
X97370000Y-71690000D01*
X97370000Y-65150000D01*
X94630000Y-65150000D01*
X94630000Y-71690000D01*
%TO.C,J1*%
X105480000Y-68620000D02*
X106860000Y-68620000D01*
X105480000Y-70000000D02*
X105480000Y-68620000D01*
X105480000Y-71270000D02*
X105480000Y-106940000D01*
X105480000Y-71270000D02*
X108240000Y-71270000D01*
X105480000Y-106940000D02*
X108240000Y-106940000D01*
X108240000Y-71270000D02*
X108240000Y-106940000D01*
%TO.C,BZ1*%
X65600000Y-95000000D02*
G75*
G02*
X53400000Y-95000000I-6100000J0D01*
G01*
X53400000Y-95000000D02*
G75*
G02*
X65600000Y-95000000I6100000J0D01*
G01*
%TO.C,R5*%
X71000000Y-111040000D02*
X71000000Y-111810000D01*
X71000000Y-119120000D02*
X71000000Y-118350000D01*
X69630000Y-118350000D02*
X72370000Y-118350000D01*
X72370000Y-111810000D01*
X69630000Y-111810000D01*
X69630000Y-118350000D01*
%TO.C,J5*%
X116880000Y-49880000D02*
X127620000Y-49880000D01*
X116880000Y-53500000D02*
X118120000Y-53500000D01*
X116880000Y-54500000D02*
X118120000Y-54500000D01*
X116880000Y-55800000D02*
X118120000Y-55800000D01*
X116880000Y-57920000D02*
X116880000Y-49880000D01*
X119700000Y-57920000D02*
X116880000Y-57920000D01*
X121880000Y-53500000D02*
X123188000Y-53500000D01*
X121880000Y-54500000D02*
X123188000Y-54500000D01*
X121880000Y-55800000D02*
X124457000Y-55800000D01*
X125543000Y-55800000D02*
X127620000Y-55800000D01*
X126812000Y-53500000D02*
X127620000Y-53500000D01*
X126812000Y-54500000D02*
X127620000Y-54500000D01*
X127620000Y-49880000D02*
X127620000Y-57920000D01*
X127620000Y-57920000D02*
X120300000Y-57920000D01*
X120440000Y-58530000D02*
X119560000Y-58530000D01*
X120000000Y-57920000D01*
X120440000Y-58530000D01*
G36*
X120440000Y-58530000D02*
G01*
X119560000Y-58530000D01*
X120000000Y-57920000D01*
X120440000Y-58530000D01*
G37*
%TD*%
M02*
