%TF.GenerationSoftware,KiCad,Pcbnew,9.0.5*%
%TF.CreationDate,2026-07-02T18:11:21-04:00*%
%TF.ProjectId,Electric Skateboard,456c6563-7472-4696-9320-536b61746562,rev?*%
%TF.SameCoordinates,Original*%
%TF.FileFunction,Copper,L2,Bot*%
%TF.FilePolarity,Positive*%
%FSLAX46Y46*%
G04 Gerber Fmt 4.6, Leading zero omitted, Abs format (unit mm)*
G04 Created by KiCad (PCBNEW 9.0.5) date 2026-07-02 18:11:21*
%MOMM*%
%LPD*%
G01*
G04 APERTURE LIST*
G04 Aperture macros list*
%AMRoundRect*
0 Rectangle with rounded corners*
0 $1 Rounding radius*
0 $2 $3 $4 $5 $6 $7 $8 $9 X,Y pos of 4 corners*
0 Add a 4 corners polygon primitive as box body*
4,1,4,$2,$3,$4,$5,$6,$7,$8,$9,$2,$3,0*
0 Add four circle primitives for the rounded corners*
1,1,$1+$1,$2,$3*
1,1,$1+$1,$4,$5*
1,1,$1+$1,$6,$7*
1,1,$1+$1,$8,$9*
0 Add four rect primitives between the rounded corners*
20,1,$1+$1,$2,$3,$4,$5,0*
20,1,$1+$1,$4,$5,$6,$7,0*
20,1,$1+$1,$6,$7,$8,$9,0*
20,1,$1+$1,$8,$9,$2,$3,0*%
G04 Aperture macros list end*
%TA.AperFunction,ComponentPad*%
%ADD10C,1.600000*%
%TD*%
%TA.AperFunction,ComponentPad*%
%ADD11R,1.700000X1.700000*%
%TD*%
%TA.AperFunction,ComponentPad*%
%ADD12C,1.700000*%
%TD*%
%TA.AperFunction,ComponentPad*%
%ADD13RoundRect,0.250001X1.149999X-1.149999X1.149999X1.149999X-1.149999X1.149999X-1.149999X-1.149999X0*%
%TD*%
%TA.AperFunction,ComponentPad*%
%ADD14C,2.800000*%
%TD*%
%TA.AperFunction,ComponentPad*%
%ADD15RoundRect,0.250001X-1.149999X-1.149999X1.149999X-1.149999X1.149999X1.149999X-1.149999X1.149999X0*%
%TD*%
%TA.AperFunction,ComponentPad*%
%ADD16R,1.905000X2.000000*%
%TD*%
%TA.AperFunction,ComponentPad*%
%ADD17O,1.905000X2.000000*%
%TD*%
%TA.AperFunction,ComponentPad*%
%ADD18R,2.000000X2.000000*%
%TD*%
%TA.AperFunction,ComponentPad*%
%ADD19C,2.000000*%
%TD*%
G04 APERTURE END LIST*
D10*
%TO.P,R3,1*%
%TO.N,/Gate*%
X114840000Y-65500000D03*
%TO.P,R3,2*%
%TO.N,/GPIO4*%
X125000000Y-65500000D03*
%TD*%
D11*
%TO.P,J3,1,Pin_1*%
%TO.N,/3V3*%
X160240000Y-70000000D03*
D12*
%TO.P,J3,2,Pin_2*%
%TO.N,GND*%
X160240000Y-72540000D03*
%TO.P,J3,3,Pin_3*%
%TO.N,/<NO NET>*%
X160240000Y-75080000D03*
%TO.P,J3,4,Pin_4*%
%TO.N,/3V3*%
X160240000Y-77620000D03*
%TO.P,J3,5,Pin_5*%
%TO.N,/A7*%
X160240000Y-80160000D03*
%TO.P,J3,6,Pin_6*%
%TO.N,/A6*%
X160240000Y-82700000D03*
%TO.P,J3,7,Pin_7*%
%TO.N,/A5*%
X160240000Y-85240000D03*
%TO.P,J3,8,Pin_8*%
%TO.N,/A4*%
X160240000Y-87780000D03*
%TO.P,J3,9,Pin_9*%
%TO.N,/A3*%
X160240000Y-90320000D03*
%TO.P,J3,10,Pin_10*%
%TO.N,/A2*%
X160240000Y-92860000D03*
%TO.P,J3,11,Pin_11*%
%TO.N,/A1*%
X160240000Y-95400000D03*
%TO.P,J3,12,Pin_12*%
%TO.N,/A0*%
X160240000Y-97940000D03*
%TO.P,J3,13,Pin_13*%
%TO.N,/REF*%
X160240000Y-100480000D03*
%TO.P,J3,14,Pin_14*%
%TO.N,/3V3*%
X160240000Y-103020000D03*
%TO.P,J3,15,Pin_15*%
%TO.N,/D13*%
X160240000Y-105560000D03*
%TD*%
D11*
%TO.P,J8,1,Pin_1*%
%TO.N,/3V3*%
X86920000Y-127500000D03*
D12*
%TO.P,J8,2,Pin_2*%
%TO.N,GND*%
X89460000Y-127500000D03*
%TO.P,J8,3,Pin_3*%
%TO.N,/GPIO22*%
X92000000Y-127500000D03*
%TO.P,J8,4,Pin_4*%
%TO.N,/GPIO21*%
X94540000Y-127500000D03*
%TO.P,J8,5,Pin_5*%
%TO.N,unconnected-(J8-Pin_5-Pad5)*%
X97080000Y-127500000D03*
%TO.P,J8,6,Pin_6*%
%TO.N,unconnected-(J8-Pin_6-Pad6)*%
X99620000Y-127500000D03*
%TO.P,J8,7,Pin_7*%
%TO.N,unconnected-(J8-Pin_7-Pad7)*%
X102160000Y-127500000D03*
%TO.P,J8,8,Pin_8*%
%TO.N,unconnected-(J8-Pin_8-Pad8)*%
X104700000Y-127500000D03*
%TD*%
D13*
%TO.P,J9,1,Pin_1*%
%TO.N,/GPIO21*%
X66000000Y-67500000D03*
D14*
%TO.P,J9,2,Pin_2*%
%TO.N,/GPIO22*%
X66000000Y-62500000D03*
%TO.P,J9,3,Pin_3*%
%TO.N,/3V3*%
X66000000Y-57500000D03*
%TO.P,J9,4,Pin_4*%
%TO.N,GND*%
X66000000Y-52500000D03*
%TD*%
D13*
%TO.P,J7,1,Pin_1*%
%TO.N,GND*%
X58000000Y-137500000D03*
D14*
%TO.P,J7,2,Pin_2*%
%TO.N,/5V (iso)+*%
X58000000Y-132500000D03*
%TO.P,J7,3,Pin_3*%
%TO.N,/GPIO25*%
X58000000Y-127500000D03*
%TD*%
D13*
%TO.P,J6,1,Pin_1*%
%TO.N,/Signal*%
X58000000Y-118500000D03*
D14*
%TO.P,J6,2,Pin_2*%
%TO.N,GND*%
X58000000Y-113500000D03*
%TO.P,J6,3,Pin_3*%
%TO.N,/5V (iso)+*%
X58000000Y-108500000D03*
%TD*%
D15*
%TO.P,J12,1,Pin_1*%
%TO.N,/3V3*%
X93750000Y-54000000D03*
D14*
%TO.P,J12,2,Pin_2*%
%TO.N,GND*%
X98750000Y-54000000D03*
%TD*%
D10*
%TO.P,R2,1*%
%TO.N,/GPIO16(RX2)*%
X129000000Y-80000000D03*
%TO.P,R2,2*%
%TO.N,GND*%
X139160000Y-80000000D03*
%TD*%
%TO.P,R1,1*%
%TO.N,/GPIO16(RX2)*%
X128840000Y-73500000D03*
%TO.P,R1,2*%
%TO.N,/TX1*%
X139000000Y-73500000D03*
%TD*%
D16*
%TO.P,Q1,1,G*%
%TO.N,/Gate*%
X131960000Y-65450000D03*
D17*
%TO.P,Q1,2,D*%
%TO.N,/Drain*%
X134500000Y-65450000D03*
%TO.P,Q1,3,S*%
%TO.N,GND*%
X137040000Y-65450000D03*
%TD*%
D10*
%TO.P,R4,1*%
%TO.N,/Gate*%
X114840000Y-73000000D03*
%TO.P,R4,2*%
%TO.N,GND*%
X125000000Y-73000000D03*
%TD*%
D15*
%TO.P,J11,1,Pin_1*%
%TO.N,GND*%
X144500000Y-54000000D03*
D14*
%TO.P,J11,2,Pin_2*%
%TO.N,/D4*%
X149500000Y-54000000D03*
%TO.P,J11,3,Pin_3*%
%TO.N,/D3*%
X154500000Y-54000000D03*
%TO.P,J11,4,Pin_4*%
%TO.N,/3V3*%
X159500000Y-54000000D03*
%TD*%
D11*
%TO.P,J2,1,Pin_1*%
%TO.N,/EN*%
X84000000Y-70000000D03*
D12*
%TO.P,J2,2,Pin_2*%
%TO.N,/GPIO36(VP)*%
X84000000Y-72540000D03*
%TO.P,J2,3,Pin_3*%
%TO.N,/GPIO39(VN)*%
X84000000Y-75080000D03*
%TO.P,J2,4,Pin_4*%
%TO.N,/GPIO34*%
X84000000Y-77620000D03*
%TO.P,J2,5,Pin_5*%
%TO.N,/GPIO35*%
X84000000Y-80160000D03*
%TO.P,J2,6,Pin_6*%
%TO.N,/GPIO32*%
X84000000Y-82700000D03*
%TO.P,J2,7,Pin_7*%
%TO.N,/GPIO33*%
X84000000Y-85240000D03*
%TO.P,J2,8,Pin_8*%
%TO.N,/GPIO25*%
X84000000Y-87780000D03*
%TO.P,J2,9,Pin_9*%
%TO.N,/GPIO26*%
X84000000Y-90320000D03*
%TO.P,J2,10,Pin_10*%
%TO.N,/GPIO27*%
X84000000Y-92860000D03*
%TO.P,J2,11,Pin_11*%
%TO.N,/GPIO14*%
X84000000Y-95400000D03*
%TO.P,J2,12,Pin_12*%
%TO.N,/GPIO12*%
X84000000Y-97940000D03*
%TO.P,J2,13,Pin_13*%
%TO.N,/GPIO13*%
X84000000Y-100480000D03*
%TO.P,J2,14,Pin_14*%
%TO.N,GND*%
X84000000Y-103020000D03*
%TO.P,J2,15,Pin_15*%
%TO.N,/3V3*%
X84000000Y-105560000D03*
%TD*%
D11*
%TO.P,J4,1,Pin_1*%
%TO.N,/TX1*%
X145000000Y-70000000D03*
D12*
%TO.P,J4,2,Pin_2*%
%TO.N,/GPIO17(TX2)*%
X145000000Y-72540000D03*
%TO.P,J4,3,Pin_3*%
%TO.N,/<NO NET>*%
X145000000Y-75080000D03*
%TO.P,J4,4,Pin_4*%
%TO.N,GND*%
X145000000Y-77620000D03*
%TO.P,J4,5,Pin_5*%
%TO.N,/D2*%
X145000000Y-80160000D03*
%TO.P,J4,6,Pin_6*%
%TO.N,/D3*%
X145000000Y-82700000D03*
%TO.P,J4,7,Pin_7*%
%TO.N,/D4*%
X145000000Y-85240000D03*
%TO.P,J4,8,Pin_8*%
%TO.N,/D5*%
X145000000Y-87780000D03*
%TO.P,J4,9,Pin_9*%
%TO.N,/D6*%
X145000000Y-90320000D03*
%TO.P,J4,10,Pin_10*%
%TO.N,/D7*%
X145000000Y-92860000D03*
%TO.P,J4,11,Pin_11*%
%TO.N,/D8*%
X145000000Y-95400000D03*
%TO.P,J4,12,Pin_12*%
%TO.N,/D9*%
X145000000Y-97940000D03*
%TO.P,J4,13,Pin_13*%
%TO.N,/CS*%
X145000000Y-100480000D03*
%TO.P,J4,14,Pin_14*%
%TO.N,/D11*%
X145000000Y-103020000D03*
%TO.P,J4,15,Pin_15*%
%TO.N,/D12*%
X145000000Y-105560000D03*
%TD*%
D15*
%TO.P,J10,1,Pin_1*%
%TO.N,GND*%
X140000000Y-127000000D03*
D14*
%TO.P,J10,2,Pin_2*%
%TO.N,/3V3*%
X145000000Y-127000000D03*
%TO.P,J10,3,Pin_3*%
%TO.N,/D12*%
X150000000Y-127000000D03*
%TO.P,J10,4,Pin_4*%
%TO.N,/D11*%
X155000000Y-127000000D03*
%TO.P,J10,5,Pin_5*%
%TO.N,/D13*%
X160000000Y-127000000D03*
%TO.P,J10,6,Pin_6*%
%TO.N,/CS*%
X165000000Y-127000000D03*
%TD*%
D15*
%TO.P,D1,1,K*%
%TO.N,/Drain*%
X134000000Y-37500000D03*
D14*
%TO.P,D1,2,A*%
%TO.N,/12V*%
X139000000Y-37500000D03*
%TD*%
D10*
%TO.P,R6,1*%
%TO.N,/GPIO34*%
X96000000Y-73500000D03*
%TO.P,R6,2*%
%TO.N,GND*%
X96000000Y-63340000D03*
%TD*%
D11*
%TO.P,J1,1,Pin_1*%
%TO.N,/<NO NET>*%
X106860000Y-70000000D03*
D12*
%TO.P,J1,2,Pin_2*%
%TO.N,/GPIO22*%
X106860000Y-72540000D03*
%TO.P,J1,3,Pin_3*%
%TO.N,/GPIO1(TX0)*%
X106860000Y-75080000D03*
%TO.P,J1,4,Pin_4*%
%TO.N,/GPIO3(RX0)*%
X106860000Y-77620000D03*
%TO.P,J1,5,Pin_5*%
%TO.N,/GPIO21*%
X106860000Y-80160000D03*
%TO.P,J1,6,Pin_6*%
%TO.N,/GPIO19*%
X106860000Y-82700000D03*
%TO.P,J1,7,Pin_7*%
%TO.N,/GPIO18*%
X106860000Y-85240000D03*
%TO.P,J1,8,Pin_8*%
%TO.N,/GPIO5*%
X106860000Y-87780000D03*
%TO.P,J1,9,Pin_9*%
%TO.N,/GPIO17(TX2)*%
X106860000Y-90320000D03*
%TO.P,J1,10,Pin_10*%
%TO.N,/GPIO16(RX2)*%
X106860000Y-92860000D03*
%TO.P,J1,11,Pin_11*%
%TO.N,/GPIO4*%
X106860000Y-95400000D03*
%TO.P,J1,12,Pin_12*%
%TO.N,/GPIO2*%
X106860000Y-97940000D03*
%TO.P,J1,13,Pin_13*%
%TO.N,/GPIO15*%
X106860000Y-100480000D03*
%TO.P,J1,14,Pin_14*%
%TO.N,GND*%
X106860000Y-103020000D03*
%TO.P,J1,15,Pin_15*%
%TO.N,/3V3*%
X106860000Y-105560000D03*
%TD*%
D18*
%TO.P,BZ1,1,+*%
%TO.N,/3V3*%
X55700000Y-95000000D03*
D19*
%TO.P,BZ1,2,-*%
%TO.N,GND*%
X63300000Y-95000000D03*
%TD*%
D10*
%TO.P,R5,1*%
%TO.N,/GPIO34*%
X71000000Y-120160000D03*
%TO.P,R5,2*%
%TO.N,/Signal*%
X71000000Y-110000000D03*
%TD*%
D15*
%TO.P,J5,1,Pin_1*%
%TO.N,/12V*%
X120000000Y-54000000D03*
D14*
%TO.P,J5,2,Pin_2*%
%TO.N,GND*%
X125000000Y-54000000D03*
%TD*%
M02*
