%TF.GenerationSoftware,KiCad,Pcbnew,9.0.5*%
%TF.CreationDate,2026-07-02T18:11:21-04:00*%
%TF.ProjectId,Electric Skateboard,456c6563-7472-4696-9320-536b61746562,rev?*%
%TF.SameCoordinates,Original*%
%TF.FileFunction,Soldermask,Top*%
%TF.FilePolarity,Negative*%
%FSLAX46Y46*%
G04 Gerber Fmt 4.6, Leading zero omitted, Abs format (unit mm)*
G04 Created by KiCad (PCBNEW 9.0.5) date 2026-07-02 18:11:21*
%MOMM*%
%LPD*%
G01*
G04 APERTURE LIST*
G04 Aperture macros list*
%AMRoundRect*
0 Rectangle with rounded corners*
0 $1 Rounding radius*
0 $2 $3 $4 $5 $6 $7 $8 $9 X,Y pos of 4 corners*
0 Add a 4 corners polygon primitive as box body*
4,1,4,$2,$3,$4,$5,$6,$7,$8,$9,$2,$3,0*
0 Add four circle primitives for the rounded corners*
1,1,$1+$1,$2,$3*
1,1,$1+$1,$4,$5*
1,1,$1+$1,$6,$7*
1,1,$1+$1,$8,$9*
0 Add four rect primitives between the rounded corners*
20,1,$1+$1,$2,$3,$4,$5,0*
20,1,$1+$1,$4,$5,$6,$7,0*
20,1,$1+$1,$6,$7,$8,$9,0*
20,1,$1+$1,$8,$9,$2,$3,0*%
G04 Aperture macros list end*
%ADD10C,1.600000*%
%ADD11R,1.700000X1.700000*%
%ADD12C,1.700000*%
%ADD13C,5.300000*%
%ADD14RoundRect,0.250001X1.149999X-1.149999X1.149999X1.149999X-1.149999X1.149999X-1.149999X-1.149999X0*%
%ADD15C,2.800000*%
%ADD16RoundRect,0.250001X-1.149999X-1.149999X1.149999X-1.149999X1.149999X1.149999X-1.149999X1.149999X0*%
%ADD17R,1.905000X2.000000*%
%ADD18O,1.905000X2.000000*%
%ADD19R,2.000000X2.000000*%
%ADD20C,2.000000*%
G04 APERTURE END LIST*
D10*
%TO.C,R3*%
X114840000Y-65500000D03*
X125000000Y-65500000D03*
%TD*%
D11*
%TO.C,J3*%
X160240000Y-70000000D03*
D12*
X160240000Y-72540000D03*
X160240000Y-75080000D03*
X160240000Y-77620000D03*
X160240000Y-80160000D03*
X160240000Y-82700000D03*
X160240000Y-85240000D03*
X160240000Y-87780000D03*
X160240000Y-90320000D03*
X160240000Y-92860000D03*
X160240000Y-95400000D03*
X160240000Y-97940000D03*
X160240000Y-100480000D03*
X160240000Y-103020000D03*
X160240000Y-105560000D03*
%TD*%
D13*
%TO.C,REF\u002A\u002A*%
X53857823Y-32642176D03*
%TD*%
D11*
%TO.C,J8*%
X86920000Y-127500000D03*
D12*
X89460000Y-127500000D03*
X92000000Y-127500000D03*
X94540000Y-127500000D03*
X97080000Y-127500000D03*
X99620000Y-127500000D03*
X102160000Y-127500000D03*
X104700000Y-127500000D03*
%TD*%
D14*
%TO.C,J9*%
X66000000Y-67500000D03*
D15*
X66000000Y-62500000D03*
X66000000Y-57500000D03*
X66000000Y-52500000D03*
%TD*%
D14*
%TO.C,J7*%
X58000000Y-137500000D03*
D15*
X58000000Y-132500000D03*
X58000000Y-127500000D03*
%TD*%
D14*
%TO.C,J6*%
X58000000Y-118500000D03*
D15*
X58000000Y-113500000D03*
X58000000Y-108500000D03*
%TD*%
D13*
%TO.C,REF\u002A\u002A*%
X167857823Y-32642176D03*
%TD*%
D16*
%TO.C,J12*%
X93750000Y-54000000D03*
D15*
X98750000Y-54000000D03*
%TD*%
D10*
%TO.C,R2*%
X129000000Y-80000000D03*
X139160000Y-80000000D03*
%TD*%
D13*
%TO.C,REF\u002A\u002A*%
X53857823Y-156642176D03*
%TD*%
D10*
%TO.C,R1*%
X128840000Y-73500000D03*
X139000000Y-73500000D03*
%TD*%
D17*
%TO.C,Q1*%
X131960000Y-65450000D03*
D18*
X134500000Y-65450000D03*
X137040000Y-65450000D03*
%TD*%
D10*
%TO.C,R4*%
X114840000Y-73000000D03*
X125000000Y-73000000D03*
%TD*%
D13*
%TO.C,REF\u002A\u002A*%
X167857823Y-156642176D03*
%TD*%
D16*
%TO.C,J11*%
X144500000Y-54000000D03*
D15*
X149500000Y-54000000D03*
X154500000Y-54000000D03*
X159500000Y-54000000D03*
%TD*%
D11*
%TO.C,J2*%
X84000000Y-70000000D03*
D12*
X84000000Y-72540000D03*
X84000000Y-75080000D03*
X84000000Y-77620000D03*
X84000000Y-80160000D03*
X84000000Y-82700000D03*
X84000000Y-85240000D03*
X84000000Y-87780000D03*
X84000000Y-90320000D03*
X84000000Y-92860000D03*
X84000000Y-95400000D03*
X84000000Y-97940000D03*
X84000000Y-100480000D03*
X84000000Y-103020000D03*
X84000000Y-105560000D03*
%TD*%
D11*
%TO.C,J4*%
X145000000Y-70000000D03*
D12*
X145000000Y-72540000D03*
X145000000Y-75080000D03*
X145000000Y-77620000D03*
X145000000Y-80160000D03*
X145000000Y-82700000D03*
X145000000Y-85240000D03*
X145000000Y-87780000D03*
X145000000Y-90320000D03*
X145000000Y-92860000D03*
X145000000Y-95400000D03*
X145000000Y-97940000D03*
X145000000Y-100480000D03*
X145000000Y-103020000D03*
X145000000Y-105560000D03*
%TD*%
D16*
%TO.C,J10*%
X140000000Y-127000000D03*
D15*
X145000000Y-127000000D03*
X150000000Y-127000000D03*
X155000000Y-127000000D03*
X160000000Y-127000000D03*
X165000000Y-127000000D03*
%TD*%
D16*
%TO.C,D1*%
X134000000Y-37500000D03*
D15*
X139000000Y-37500000D03*
%TD*%
D10*
%TO.C,R6*%
X96000000Y-73500000D03*
X96000000Y-63340000D03*
%TD*%
D11*
%TO.C,J1*%
X106860000Y-70000000D03*
D12*
X106860000Y-72540000D03*
X106860000Y-75080000D03*
X106860000Y-77620000D03*
X106860000Y-80160000D03*
X106860000Y-82700000D03*
X106860000Y-85240000D03*
X106860000Y-87780000D03*
X106860000Y-90320000D03*
X106860000Y-92860000D03*
X106860000Y-95400000D03*
X106860000Y-97940000D03*
X106860000Y-100480000D03*
X106860000Y-103020000D03*
X106860000Y-105560000D03*
%TD*%
D19*
%TO.C,BZ1*%
X55700000Y-95000000D03*
D20*
X63300000Y-95000000D03*
%TD*%
D10*
%TO.C,R5*%
X71000000Y-120160000D03*
X71000000Y-110000000D03*
%TD*%
D16*
%TO.C,J5*%
X120000000Y-54000000D03*
D15*
X125000000Y-54000000D03*
%TD*%
M02*
